<?xml version="1.0" standalone="no"?>
<!DOCTYPE svg PUBLIC "-//W3C//DTD SVG 1.1//EN" "http://www.w3.org/Graphics/SVG/1.1/DTD/svg11.dtd" >
<svg xmlns="http://www.w3.org/2000/svg">
<metadata>Generated by IcoMoon</metadata>
<defs>
<font id="icomoon" horiz-adv-x="1024">
<font-face units-per-em="1024" ascent="960" descent="-64" />
<missing-glyph horiz-adv-x="1024" />
<glyph unicode="&#x20;" horiz-adv-x="512" d="" />
<glyph unicode="&#xe900;" glyph-name="scroll" horiz-adv-x="67" d="M54.152 960h13.299v-917.61h-13.299v917.61zM67.451-64.013l-67.451 140.301h67.451z" />
<glyph unicode="&#xe901;" glyph-name="chevron-left" d="M670.165 200.832l-225.835 225.835 225.835 225.835c16.683 16.683 16.683 43.691 0 60.331s-43.691 16.683-60.331 0l-256-256c-16.683-16.683-16.683-43.691 0-60.331l256-256c16.683-16.683 43.691-16.683 60.331 0s16.683 43.691 0 60.331z" />
<glyph unicode="&#xe902;" glyph-name="chevron-right" d="M414.165 140.502l256 256c16.683 16.683 16.683 43.691 0 60.331l-256 256c-16.683 16.683-43.691 16.683-60.331 0s-16.683-43.691 0-60.331l225.835-225.835-225.835-225.835c-16.683-16.683-16.683-43.691 0-60.331s43.691-16.683 60.331 0z" />
<glyph unicode="&#xe903;" glyph-name="clock" d="M981.333 426.667c0 129.579-52.565 246.997-137.472 331.861s-202.283 137.472-331.861 137.472-246.997-52.565-331.861-137.472-137.472-202.283-137.472-331.861 52.565-246.997 137.472-331.861 202.283-137.472 331.861-137.472 246.997 52.565 331.861 137.472 137.472 202.283 137.472 331.861zM896 426.667c0-106.069-42.923-201.984-112.469-271.531s-165.461-112.469-271.531-112.469-201.984 42.923-271.531 112.469-112.469 165.461-112.469 271.531 42.923 201.984 112.469 271.531 165.461 112.469 271.531 112.469 201.984-42.923 271.531-112.469 112.469-165.461 112.469-271.531zM469.333 682.667v-256c0-16.597 9.472-31.019 23.595-38.144l170.667-85.333c21.077-10.539 46.72-2.005 57.259 19.072s2.005 46.72-19.072 57.259l-147.115 73.515v229.632c0 23.552-19.115 42.667-42.667 42.667s-42.667-19.115-42.667-42.667z" />
<glyph unicode="&#xe904;" glyph-name="mail" d="M128 600.704l359.552-251.691c14.507-10.027 33.92-10.496 48.939 0l359.509 251.691v-430.037c0-11.605-4.693-22.229-12.587-30.080s-18.475-12.587-30.080-12.587h-682.667c-11.605 0-22.229 4.693-30.080 12.587s-12.587 18.475-12.587 30.080zM42.667 683.392c0-0.427 0-0.853 0-1.28v-511.445c0-35.328 14.507-67.371 37.547-90.453s55.125-37.547 90.453-37.547h682.667c35.328 0 67.371 14.507 90.453 37.547s37.547 55.125 37.547 90.453v511.488c0 0.427 0 0.853 0 1.28-0.213 35.029-14.635 66.773-37.547 89.685-23.083 23.040-55.125 37.547-90.453 37.547h-682.667c-35.328 0-67.371-14.507-90.453-37.547-22.912-22.912-37.333-54.656-37.547-89.728zM891.477 701.696l-379.477-265.6-379.477 265.6c2.048 4.096 4.779 7.808 8.021 11.051 7.893 7.893 18.517 12.587 30.123 12.587h682.667c11.605 0 22.229-4.693 30.080-12.587 3.243-3.243 5.973-6.997 8.021-11.051z" />
<glyph unicode="&#xe905;" glyph-name="phone" d="M981.333 216.747c0.683 30.464-10.069 59.904-28.715 82.901-19.627 24.149-48.171 41.259-82.133 46.080-34.133 4.181-72.32 13.397-110.336 27.563-18.475 6.784-38.101 9.301-57.344 7.424-28.288-2.731-55.765-14.891-77.611-36.48l-30.72-30.72c-75.52 47.659-143.36 113.792-195.541 195.797l30.976 30.976c13.739 14.080 24.021 30.976 30.165 49.323 9.045 26.965 9.131 57.003-1.664 85.803-12.331 32.128-22.101 70.144-27.477 110.72-4.437 30.464-19.456 57.387-41.088 76.971-22.997 20.736-53.589 33.237-86.485 32.896h-127.829c-3.755 0-7.765-0.171-11.648-0.512-35.157-3.2-65.792-20.395-86.741-45.483s-32.341-58.325-29.141-93.824c12.8-131.243 58.24-266.368 137.216-388.352 64.085-102.955 155.648-197.248 268.715-269.056 109.568-72.405 242.517-122.112 387.669-137.856 3.925-0.384 8.149-0.555 12.288-0.555 35.328 0.128 67.328 14.635 90.368 37.845s37.248 55.339 37.12 90.496zM896 216.747v-128c0.043-11.947-4.651-22.613-12.373-30.379s-18.304-12.587-30.123-12.629c-134.357 14.336-254.336 59.349-352.555 124.245-103.595 65.835-185.984 150.912-243.285 242.944-72.405 111.787-113.28 233.856-124.757 351.488-1.024 11.435 2.731 22.443 9.771 30.891s17.195 14.080 28.928 15.147l131.755 0.213c11.563 0.128 21.632-4.011 29.312-10.923 7.253-6.571 12.288-15.616 13.781-25.941 6.059-45.739 17.408-90.325 32.299-129.067 3.456-9.216 3.413-19.072 0.427-28.075-2.091-6.187-5.589-11.989-10.325-16.853l-53.845-53.803c-13.824-13.824-16.171-34.731-6.912-51.243 67.584-118.827 163.797-211.499 272.256-272.128 16.939-9.472 37.632-6.144 50.987 7.083l54.187 54.187c7.083 6.997 16.085 10.965 25.515 11.904 6.485 0.64 13.227-0.213 19.584-2.56 43.605-16.256 88.32-27.136 129.451-32.171 10.283-1.451 19.712-7.083 26.24-15.147 6.272-7.723 9.856-17.579 9.643-29.099z" />
<glyph unicode="&#xe906;" glyph-name="TelecomSwitchboard" d="M956.157 844.111c0-78.825 0-157.722 0-236.547-0.939-2.529-1.662-5.202-2.89-7.586-6.141-12.066-16.112-17.34-29.55-17.34-47.902 0.145-95.876 0.072-143.778 0.072-1.445 0-2.89 0-4.335 0 0-7.659 0-14.884 0-22.398 13.294 0 26.227 0 39.16 0 0-7.731 0-15.028 0-22.325-34.030 0-67.698 0-101.584 0 0 7.514 0 14.811 0 22.687 13.222 0 26.299 0 39.232 0 0 7.586 0 14.667 0 22.109-1.59 0-2.962 0-4.263 0-21.747 0-43.567 0-65.314 0-27.311 0-54.549-0.217-81.859 0.145-16.618 0.217-29.189 13.366-29.189 29.984-0.072 75.574-0.072 151.147 0.072 226.721 0 4.335 1.156 9.031 3.035 12.933 5.78 11.849 15.751 17.051 28.828 17.051 106.713-0.072 213.499 0 320.212 0 1.156 0 2.24 0 3.396-0.072 6.575-0.289 12.427-2.529 17.557-6.575 6.214-4.841 9.248-11.488 11.271-18.857zM933.471 659.368c0 1.517 0 2.673 0 3.757 0 57.945 0 115.889 0 173.761 0 7.442-2.601 10.043-10.26 10.043-106.208 0-212.487 0-318.695 0-7.731 0-10.26-2.601-10.26-10.404 0-57.656 0-115.383 0-173.039 0-1.301 0-2.673 0-4.118 113.288 0 225.998 0 339.214 0zM933.398 636.031c-113.071 0-225.854 0-338.925 0 0-8.020-0.145-15.895 0.072-23.698 0.145-3.829 2.601-6.141 6.43-6.719 1.445-0.217 2.962-0.217 4.48-0.217 105.63 0 211.187 0 316.816 0 1.156 0 2.24-0.072 3.396 0.072 4.624 0.434 7.442 2.673 7.586 7.225 0.361 7.659 0.145 15.389 0.145 23.337zM332.639 571.728c-3.107 0.361-6.214 0.867-9.248 1.084-23.337 1.806-46.023 6.719-68.132 14.595-46.168 16.401-85.327 43.061-117.551 79.909-25.793 29.55-44.434 63.147-56.066 100.644-5.347 17.34-9.031 35.041-10.765 53.104-0.939 9.609-1.301 19.363-1.301 29.045 0 12.427 10.476 22.831 22.903 22.976 19.002 0.217 38.076 0.217 57.078 0 12.283-0.145 22.325-10.115 22.903-22.398 0.65-13.583 1.445-27.238 4.696-40.46 1.301-5.419 2.962-10.765 4.335-16.112 2.168-8.309 0-15.534-5.274-22.181-8.526-10.91-16.762-22.036-24.999-33.091-0.506-0.65-0.361-2.24 0.072-3.035 17.99-34.174 43.639-60.835 77.452-79.475 6.503-3.54 6.43-3.685 12.138 0.723 10.115 7.731 20.23 15.534 30.417 23.12 5.997 4.48 12.716 5.563 20.086 3.757 9.609-2.384 19.146-5.058 28.828-6.719 8.237-1.445 16.762-2.095 25.143-2.168 12.138-0.072 22.542-7.514 24.999-19.363 0.072-0.289 0.289-0.506 0.434-0.723 0-21.025 0-41.977 0-63.002-1.517-3.396-2.746-7.081-4.696-10.187-3.468-5.563-9.248-8.020-15.317-9.826-5.997-0.217-12.066-0.217-18.135-0.217zM120.947 857.333c-8.67 0-17.268 0-25.938 0-6.792 0-10.115-3.107-9.682-9.898 0.939-13.511 1.662-27.022 3.613-40.388 3.035-21.531 9.393-42.122 18.207-62.063 20.591-46.601 51.876-84.244 94.070-112.71 43.495-29.334 91.685-43.856 144.067-44.651 6.647-0.072 9.754 2.962 9.754 9.609 0 17.268 0 34.536 0 51.803 0 6.719-2.962 9.754-9.609 9.826-18.93 0.072-37.426 2.962-55.488 8.815-4.046 1.301-7.442 0.795-10.91-1.951-12.138-9.465-24.493-18.641-36.703-27.961-3.179-2.384-6.43-3.468-10.115-1.59-19.002 9.754-36.775 21.242-52.526 35.836-19.074 17.701-33.596 38.726-45.445 61.774-1.879 3.757-1.59 7.081 0.939 10.404 9.393 12.355 18.568 24.782 28.105 36.992 2.89 3.757 3.468 7.297 2.095 11.705-5.852 17.918-8.453 36.342-8.67 55.199-0.072 6.286-3.107 9.248-9.465 9.248-8.815 0-17.557 0-26.299 0zM532.627 469.133c0-11.173-9.057-20.23-20.23-20.23s-20.23 9.057-20.23 20.23c0 11.173 9.057 20.23 20.23 20.23s20.23-9.057 20.23-20.23zM591.872 509.593c0-11.173-9.057-20.23-20.23-20.23s-20.23 9.057-20.23 20.23c0 11.173 9.057 20.23 20.23 20.23s20.23-9.057 20.23-20.23zM472.299 509.593c0-11.173-9.057-20.23-20.23-20.23s-20.23 9.057-20.23 20.23c0 11.173 9.057 20.23 20.23 20.23s20.23-9.057 20.23-20.23zM532.627 401.507c0-11.173-9.057-20.23-20.23-20.23s-20.23 9.057-20.23 20.23c0 11.173 9.057 20.23 20.23 20.23s20.23-9.057 20.23-20.23zM532.627 333.881c0-11.173-9.057-20.23-20.23-20.23s-20.23 9.057-20.23 20.23c0 11.173 9.057 20.23 20.23 20.23s20.23-9.057 20.23-20.23zM262.629 154.123c3.107 6.647 5.274 14.017 9.609 19.797 7.659 10.404 18.857 15.173 32.296 15.678 0 5.78-0.072 11.488 0 17.196 0.145 17.701 8.526 30.417 24.059 38.22 3.035 1.517 3.902 3.035 3.902 6.214-0.072 53.393-0.072 106.713-0.072 160.106 0 11.416 11.054 18.207 20.736 12.788 5.274-2.962 7.225-7.586 7.225-13.583-0.072-46.529-0.072-93.058-0.072-139.587 0-7.008 0.072-13.944-0.072-20.953-0.072-2.312 0.723-3.468 2.89-4.48 16.545-7.875 25.071-21.025 25.071-39.449 0-5.274 0-10.549 0-16.184 74.996 0 149.774 0 225.276 0 0 5.347 0 10.91 0 16.401 0.072 18.279 8.526 31.284 24.854 39.087 3.035 1.445 3.035 3.251 3.035 5.78 0 53.393-0.072 106.713 0 160.106 0 11.199 10.621 18.135 20.23 13.15 5.347-2.746 7.659-7.297 7.659-13.294-0.072-38.293 0-76.657 0-114.95 0-15.173 0.072-30.417-0.072-45.59 0-2.601 0.65-3.974 3.179-5.274 16.184-7.731 24.565-20.664 24.782-38.726 0.072-5.563 0-11.127 0-16.907 11.054-0.434 20.591-3.902 28.467-11.343 8.742-8.309 13.366-18.424 13.439-30.562 0-27.889 0-55.849 0-83.738 0-18.207-10.91-33.524-28.105-39.882-1.517-0.578-3.396-2.168-3.685-3.613-2.023-8.598-6.792-13.366-14.161-13.366-7.297-0.072-12.21 4.407-14.161 12.716-0.145 0.578-0.289 1.228-0.506 1.951-118.346 0-236.691 0-355.254 0-0.361-1.301-0.65-2.601-1.012-3.902-1.734-6.719-7.081-10.91-13.8-10.838-6.503 0.072-12.066 4.263-13.222 10.838-0.723 4.118-2.601 5.636-6.286 7.081-13.222 5.274-21.531 15.245-25.288 28.972-0.217 0.867-0.65 1.59-1.012 2.384 0.072 32.585 0.072 65.17 0.072 97.754zM500.91 161.565c-64.519 0-129.039 0-193.486 0-11.416 0-16.834-5.419-16.834-16.762 0-26.082 0-52.092 0-78.175 0-11.343 5.491-16.762 16.834-16.762 129.039 0 258.005 0 387.044 0 11.343 0 16.834 5.491 16.834 16.762 0 25.866 0 51.803 0 77.669 0 11.994-5.274 17.268-17.34 17.268-64.303 0-128.677 0-193.052 0zM332.495 189.814c9.609 0 18.641 0 27.961 0 0 1.517 0 2.746 0 3.974 0 4.48 0.145 9.031-0.072 13.511-0.434 7.875-6.792 14.017-14.161 13.8-7.225-0.145-13.366-6.141-13.655-13.8-0.289-5.636-0.072-11.416-0.072-17.485zM669.324 189.742c0 6.358 0.361 12.572-0.072 18.713-0.578 7.081-6.43 12.355-13.222 12.716-6.43 0.361-13.005-4.335-13.872-11.199-0.867-6.647-0.217-13.439-0.217-20.158 9.176-0.072 18.063-0.072 27.383-0.072zM595.846 91.771c-24.059 0-48.046 0-72.106 0-9.176 0-15.245 5.491-15.317 13.728-0.072 8.453 6.069 14.161 15.462 14.161 48.046 0 96.093 0 144.139 0 9.176 0 15.245-5.491 15.317-13.728 0.072-8.526-5.997-14.161-15.462-14.161-23.987 0-48.046 0-72.033 0zM346.439 105.932c0.072-7.948-6.069-14.161-14.017-14.161-7.731 0-13.8 6.069-13.872 13.8-0.072 7.948 6.069 14.161 14.017 14.089 7.659 0 13.8-6.069 13.872-13.728zM402.288 105.571c-0.072-7.875-6.43-13.944-14.378-13.728-7.659 0.145-13.583 6.358-13.511 14.161 0.072 7.875 6.43 13.944 14.378 13.728 7.586-0.217 13.583-6.43 13.511-14.161zM444.121 91.771c-7.875 0-14.017 6.214-13.944 14.161 0.072 7.659 6.214 13.728 13.944 13.728 7.875 0 14.017-6.214 13.944-14.161-0.072-7.659-6.214-13.728-13.944-13.728z" />
<glyph unicode="&#xe907;" glyph-name="doorLock" d="M694.034 888.545c15.678-5.347 31.357-10.476 43.856-22.253 17.774-16.762 28.394-37.064 28.467-61.557 0.217-238.642 0.217-477.356 0.072-715.998 0-44.578-39.376-83.593-84.099-83.666-111.843-0.145-223.686-0.145-335.529 0-44.723 0.072-84.027 39.16-84.099 83.666-0.145 238.642-0.145 477.356 0 715.998 0 38.365 27.311 70.877 67.843 81.932 1.59 0.434 3.035 1.228 4.552 1.879 119.646 0 239.292 0 358.938 0zM714.77 446.808c0 115.889 0 231.778 0 347.667 0 29.117-13.077 42.339-41.905 42.339-105.557 0-211.042 0-316.6 0-28.539 0-41.905-13.222-41.905-41.472 0-232.356 0-464.712 0-697.069 0-28.322 13.294-41.472 41.905-41.472 105.268 0 210.537 0 315.733 0 29.767 0 42.772 12.861 42.772 42.339 0 115.889 0 231.778 0 347.667zM654.369 277.815c-0.217-76.73-64.23-140.31-140.31-139.37-77.813 0.939-139.515 63.58-139.226 141.321 0.289 76.224 63.652 139.154 139.876 138.937 77.235-0.217 139.804-63.363 139.659-140.888zM514.204 191.043c48.119-0.145 88.073 39.304 88.362 87.134 0.289 47.685-39.665 87.712-87.639 87.856-48.119 0.145-88.073-39.304-88.362-87.134-0.217-47.685 39.665-87.712 87.639-87.856zM435.162 699.828c0.072-14.45-11.849-26.516-26.010-26.371-14.017 0.145-25.577 11.849-25.649 25.938-0.072 14.522 11.777 26.516 26.010 26.371 14.017-0.145 25.577-11.849 25.649-25.938zM540.43 699.9c0.145-14.522-11.705-26.516-26.010-26.444-13.944 0.145-25.577 11.777-25.721 25.866-0.145 14.522 11.705 26.516 26.010 26.444 14.017-0.145 25.649-11.777 25.721-25.866zM645.699 699.755c0.072-14.45-11.921-26.516-26.082-26.299-14.017 0.217-25.504 11.921-25.577 26.010-0.072 14.45 11.921 26.516 26.082 26.299 14.017-0.217 25.504-11.921 25.577-26.010zM435.162 618.257c-0.072-14.089-11.705-25.721-25.649-25.866-14.233-0.145-26.155 11.921-26.010 26.371 0.072 14.089 11.632 25.721 25.649 25.866 14.233 0.145 26.155-11.921 26.010-26.371zM540.43 618.691c0.072-14.45-11.921-26.516-26.082-26.299-14.017 0.217-25.504 11.921-25.577 25.938-0.072 14.45 11.921 26.516 26.082 26.299 14.017-0.217 25.504-11.849 25.577-25.938zM645.699 618.763c0.145-14.522-11.705-26.516-26.010-26.444-13.944 0.145-25.577 11.777-25.721 25.866-0.145 14.522 11.705 26.516 26.010 26.444 14.017-0.072 25.649-11.777 25.721-25.866zM435.162 537.12c-0.072-14.017-11.705-25.721-25.721-25.866-14.233-0.145-26.082 11.921-26.010 26.444 0.072 14.089 11.705 25.721 25.721 25.866 14.233 0.072 26.155-11.921 26.010-26.444zM488.772 537.12c-0.145 14.522 11.705 26.516 26.010 26.444 13.944-0.145 25.577-11.777 25.721-25.866 0.145-14.522-11.777-26.516-26.010-26.444-14.017 0.145-25.649 11.777-25.721 25.866zM594.040 537.987c0.217 14.017 12.066 25.649 26.010 25.577 14.378-0.145 25.938-12.138 25.721-26.733-0.217-13.944-12.138-25.649-26.010-25.577-14.378 0.145-25.938 12.138-25.721 26.733zM540.43 278.754c0.072-14.45-11.921-26.516-26.082-26.299-14.017 0.217-25.504 11.921-25.577 25.938-0.072 14.45 11.849 26.516 26.082 26.299 14.017-0.217 25.504-11.921 25.577-25.938z" />
<glyph unicode="&#xe908;" glyph-name="informationSecurity" d="M519.189 890.568c27.961-8.67 55.777-17.485 83.81-25.866 86.339-26.010 172.678-51.876 259.016-77.741 17.34-5.202 23.626-13.511 23.626-31.284 0-125.065 0.072-250.057 0-375.122 0-51.225-18.93-95.948-47.902-136.986-34.608-48.986-78.825-88.434-126.51-124.126-57.8-43.278-119.863-79.258-184.888-110.543-9.537-4.552-18.568-4.552-28.105 0-88.073 42.411-170.944 92.841-243.555 158.878-40.532 36.848-75.935 77.958-97.971 129.039-11.271 26.155-17.774 53.465-17.774 82.004-0.072 125.932-0.072 251.791 0 377.723 0 16.907 6.647 25.288 23.626 30.417 112.999 33.958 225.998 67.915 338.997 101.873 1.301 0.434 2.529 1.228 3.829 1.806 4.552-0.072 9.176-0.072 13.8-0.072zM833.549 556.050c0 58.739-0.145 117.551 0.145 176.29 0 6.719-2.24 9.393-8.381 11.199-101.8 30.345-203.456 60.979-305.329 91.252-4.841 1.445-10.91 1.445-15.751 0-101.8-30.273-203.528-60.907-305.329-91.252-6.214-1.879-8.309-4.552-8.309-11.271 0.217-116.395 0.145-232.79 0.217-349.112 0-26.010 5.997-50.647 17.485-74.056 21.531-44.073 54.404-79.042 90.602-111.048 62.569-55.271 133.446-97.899 207.791-135.108 3.107-1.517 8.526-1.228 11.632 0.434 32.585 17.774 65.459 34.969 97.104 54.26 59.823 36.342 115.094 78.536 160.901 132.073 36.559 42.628 59.317 90.096 57.439 148.185-1.517 52.67-0.217 105.485-0.217 158.155zM414.715 249.421c-5.636 1.806-11.56 2.89-16.762 5.563-20.158 10.187-31.068 26.805-31.212 49.491-0.289 50.647 0.506 101.222-0.289 151.87-0.434 28.9 20.736 55.488 52.959 57.583 0 1.301 0 2.673 0 4.046 0 11.343 0 22.759 0 34.102 0.072 45.229 29.406 82.076 73.406 92.191 49.419 11.416 101.439-22.903 110.109-72.684 1.228-7.081 1.59-14.378 1.734-21.531 0.289-11.994 0.072-23.987 0.072-35.186 6.936-1.951 13.728-2.962 19.652-5.708 21.531-9.754 33.091-27.022 33.307-50.575 0.434-51.298 0.289-102.523 0.072-153.82-0.145-27.889-18.857-49.491-46.385-54.693-0.434-0.072-0.867-0.434-1.301-0.65-65.17 0-130.267 0-195.364 0zM512.397 484.233c-28.828 0-57.583 0-86.411 0-17.34 0-29.261-11.777-29.261-29.261-0.072-48.841-0.072-97.682 0-146.523 0-17.412 11.849-29.406 29.189-29.406 57.511-0.072 114.95-0.072 172.461 0 17.485 0 29.117 11.849 29.117 29.334 0 48.841 0 97.682 0 146.523 0 17.774-11.632 29.261-29.406 29.261-28.611 0.145-57.15 0.145-85.689 0.072zM571.642 514.434c0 11.777 0.072 23.12-0.072 34.536-0.072 3.685-0.217 7.442-0.939 11.054-6.43 33.524-36.775 54.188-70.372 47.974-25.721-4.769-46.312-28.25-47.252-54.404-0.434-12.427-0.145-24.854-0.217-37.281 0-0.578 0.145-1.156 0.289-1.879 39.521 0 78.825 0 118.562 0zM512.108 447.892c18.568-0.072 34.68-12.788 38.798-30.706 4.191-18.135-4.696-36.848-21.675-44.723-3.107-1.445-3.902-3.107-3.829-6.358 0.217-12.427 0.145-24.782 0.072-37.209-0.072-6.792-4.624-11.994-11.343-13.294-5.708-1.084-12.138 2.457-14.233 8.237-0.795 2.24-1.012 4.769-1.084 7.225-0.072 11.994-0.145 24.059 0 36.053 0 2.529-0.65 3.829-3.035 4.913-16.762 7.803-25.504 24.276-22.903 42.772 2.384 16.545 16.618 30.273 34.174 32.802 1.734 0.289 3.396 0.217 5.058 0.289z" />
<glyph unicode="&#xe909;" glyph-name="process" d="M175.062 4.060c-7.153 3.396-14.956 5.852-21.386 10.332-16.473 11.488-23.409 27.961-23.409 48.046 0.145 170.655 0.072 341.309 0.072 511.892 0 83.738 0 167.476 0 251.213 0 36.848 22.614 59.606 59.317 59.606 155.699 0 311.47-0.072 467.169 0.145 9.682 0 16.907-3.179 23.554-9.898 45.879-46.168 91.902-92.191 138.142-138.070 6.575-6.503 9.682-13.655 9.682-22.831-0.072-123.909-0.072-247.818-0.072-371.654 0-2.529-0.289-4.985-0.506-7.875-12.138 0-23.77 0-36.414 0 0 3.54 0 6.864 0 10.26 0 119.574-0.072 239.148 0.145 358.794 0 5.925-1.734 10.043-5.925 14.161-32.44 32.079-64.592 64.375-96.815 96.598-1.951 1.951-4.046 3.829-7.586 7.153 0-19.002-0.072-36.342 0.072-53.61 0-4.841 0-9.826 0.939-14.522 2.023-9.898 8.020-14.739 18.063-14.956 11.705-0.289 23.337-0.072 35.547-0.072 0-12.788 0-24.637 0-38.22-16.618 0.867-33.091 0.072-48.913 2.818-26.010 4.552-42.266 27.889-42.555 57.8-0.217 25.504-0.072 51.081-0.072 76.585 0 3.107 0 6.214 0 10.476-3.902 0-6.936 0-9.971 0-147.101 0-294.274 0-441.376 0-19.941 0-25.36-5.491-25.36-25.649 0-252.080 0-504.161 0-756.241 0-19.58 5.563-25.215 24.926-25.215 191.318 0 382.564 0 573.882 0 16.473 0 19.508 2.168 25.649 17.701 11.488 0 23.192 0 34.825 0 2.962-20.447-12.788-43.495-34.68-51.298-2.601-0.939-4.985-2.24-7.514-3.396-203.312-0.072-406.334-0.072-609.429-0.072zM552.352 279.332c0 12.716 0 24.132 0 36.27 12.427 0 24.204 0 36.92 0 0-11.777 0-23.409 0-36.27 4.118 0 7.442 0 10.765 0 67.698 0 135.397 0 203.023 0 19.074 0 24.926-5.925 24.999-25.288 0.072-14.884 0.072-29.839 0.145-44.723 0-0.578 0.289-1.084 0.867-3.107 6.864 0 14.161 0 21.531 0 10.332 0 20.664 0.361 30.995-0.217 13.294-0.723 19.58-7.659 19.652-20.953 0.072-22.398 0.072-44.723 0-67.12-0.072-15.317-7.153-22.398-22.759-22.47-30.417-0.072-60.762 0-91.18 0-15.173 0-30.417-0.072-45.59 0-16.979 0.072-24.204 7.153-24.276 23.843-0.072 21.242-0.072 42.411 0 63.652 0.072 15.895 7.081 22.976 23.12 23.192 16.545 0.217 33.163 0.072 50.214 0.072 0 12.21 0 23.554 0 35.547-146.379 0-292.757 0-439.642 0 0-11.56 0-22.903 0-35.547 3.035 0 6.069 0 9.031 0 14.017 0 28.105 0.217 42.122-0.072 14.089-0.289 21.675-6.792 21.964-19.869 0.506-23.481 0.434-47.035 0-70.516-0.217-12.355-7.731-20.013-20.013-20.086-47.902-0.289-95.804-0.289-143.705 0-13.005 0.072-19.941 7.803-20.013 20.808-0.145 22.398-0.072 44.723 0 67.12 0 15.678 6.575 22.398 22.398 22.687 13.728 0.217 27.527 0 41.327 0.072 2.818 0 5.563 0.289 9.393 0.434 0 16.473-0.434 32.44 0.217 48.408 0.217 5.997 1.228 13.511 4.985 17.412 3.902 4.118 11.488 6.575 17.485 6.575 68.276 0.434 136.48 0.289 204.757 0.289 3.324-0.145 6.719-0.145 11.271-0.145zM277.946 168.934c0-11.994 0-23.626 0-35.403 36.486 0 72.395 0 108.375 0 0 12.138 0 23.698 0 35.403-36.414 0-72.106 0-108.375 0zM863.605 133.243c0 12.499 0 24.059 0 35.547-36.486 0-72.25 0-108.231 0 0-12.066 0-23.626 0-35.547 36.27 0 72.033 0 108.231 0zM442.17 609.804c0-12.572 0-24.132 0-36.775-54.838 0-109.17 0-164.080 0 0-49.058 0-97.032 0-146.090 54.332 0 108.592 0 163.791 0 0-12.788 0-24.637 0-37.353-2.818 0-5.636 0-8.453 0-56.5 0-112.999 0-169.499 0-17.123 0-23.409 6.214-23.409 23.192 0 57.945 0 115.817 0 173.761 0 16.979 6.286 23.265 23.409 23.265 56.5 0 112.999 0 169.499 0 2.746 0 5.563 0 8.742 0zM589.633 572.812c0-12.644 0-23.987 0-36.125-12.427 0-24.276 0-37.064 0 0 11.632 0 23.265 0 36.125-14.306 0-27.672 0-41.038 0-29.117 0-32.657 3.54-32.657 32.513 0 18.063-0.072 36.125 0 54.188 0.145 17.123 7.081 23.987 23.987 24.059 45.301 0.072 90.602 0.072 135.902 0 16.979 0 23.987-6.936 24.059-23.987 0.145-20.953 0.145-41.833 0-62.785-0.145-17.196-6.719-23.77-23.987-23.915-15.895-0.145-31.935-0.072-49.202-0.072zM625.252 610.165c0 12.572 0 24.132 0 35.547-36.631 0-72.611 0-108.736 0 0-12.21 0-23.915 0-35.547 36.631 0 72.611 0 108.736 0zM570.197 95.456c-22.398 0-44.723-0.072-67.12 0-17.051 0.072-24.059 6.864-24.204 23.843-0.145 21.242-0.217 42.483 0 63.652 0.145 16.256 6.792 23.048 22.976 23.12 45.879 0.145 91.758 0.145 137.636 0 16.401-0.072 23.12-6.719 23.265-22.831 0.217-21.531 0.217-42.989 0-64.519-0.145-16.473-7.225-23.265-23.843-23.337-22.831 0-45.807 0.072-68.71 0.072zM516.082 133.532c37.064 0 73.189 0 109.242 0 0 12.21 0 23.77 0 35.186-36.775 0-72.9 0-109.242 0 0-11.994 0-23.337 0-35.186zM570.703 352.811c-40.171 0.217-73.767 32.946-73.334 73.117 0.434 42.989 34.102 73.623 73.695 73.623 40.099 0.072 73.84-33.018 73.334-73.117-0.434-42.122-33.018-73.262-73.695-73.623zM607.189 425.639c0.217 20.519-15.462 36.559-35.908 36.775-20.086 0.217-36.342-15.389-36.631-35.186-0.289-20.736 16.040-37.715 36.342-37.642 19.58 0.072 35.981 16.401 36.197 36.053zM423.963 774.317c0-11.849 0-23.481 0-35.692-61.124 0-121.741 0-182.937 0 0 11.705 0 23.409 0 35.692 60.762 0 121.597 0 182.937 0zM277.151 701.128c0-12.355 0-23.698 0-35.619-12.138 0-23.915 0-36.197 0 0 11.777 0 23.337 0 35.619 11.849 0 23.554 0 36.197 0zM314.36 701.562c12.355 0 23.698 0 35.619 0 0-12.138 0-23.915 0-36.197-11.777 0-23.337 0-35.619 0 0 11.849 0 23.554 0 36.197z" />
<glyph unicode="&#xe90a;" glyph-name="weakCurrent" d="M327.943 259.752c0 26.733 0 53.537 0 80.27 0.289 0.65 0.578 1.228 0.795 1.879 2.89 11.343 9.609 19.435 20.302 24.132 2.457 1.084 5.058 1.806 7.586 2.673 103.245 0 206.418 0 309.664 0 0.289-0.217 0.506-0.506 0.795-0.578 17.774-4.407 27.816-17.123 27.816-35.33 0-22.181 0-44.434 0-66.615 0-2.168-0.145-4.263-0.434-6.43-0.939-6.503-4.046-12.138-8.092-17.268 6.719-7.803 8.815-16.762 8.67-26.66-0.289-19.724-0.289-39.449 0-59.101 0.145-10.621-1.373-20.447-8.815-28.828 7.586-8.381 8.959-18.352 8.815-29.117-0.361-21.025-0.072-42.050-0.145-63.074-0.072-18.641-15.317-33.958-34.030-33.958-99.633-0.072-199.266 0-298.826 0-15.173 0-28.394 10.043-32.729 24.71-0.361 1.301-0.939 2.601-1.373 3.974 0 26.733 0 53.537 0 80.27 2.529 5.925 5.13 11.777 7.442 17.123-2.457 5.708-4.913 11.488-7.442 17.268 0 26.733 0 53.537 0 80.27 2.529 5.925 5.13 11.777 7.442 17.123-2.457 5.708-4.985 11.488-7.442 17.268zM511.314 345.802c-48.769 0-97.465 0-146.234 0-9.898 0-14.233-4.263-14.306-14.089 0-21.242 0-42.555 0-63.797 0-9.465 4.407-13.872 13.728-13.872 97.827 0 195.653 0 293.48 0 9.609 0 13.872 4.407 13.944 14.089 0 21.025 0 42.050 0 63.074 0 10.476-4.118 14.595-14.45 14.595-48.697 0-97.393 0-146.162 0zM511.314 139.312c48.986 0 97.971 0 146.884 0 9.176 0 13.728 4.48 13.728 13.583 0 21.531 0 42.989 0 64.519 0 9.248-4.407 13.728-13.583 13.728-97.971 0-195.87 0-293.841 0-9.32 0-13.728-4.48-13.728-13.872 0-21.169 0-42.266 0-63.436 0-10.187 4.191-14.45 14.306-14.45 48.769-0.072 97.538-0.072 146.234-0.072zM511.097 24.651c49.058 0 98.188 0 147.246 0 9.176 0 13.655 4.48 13.655 13.655 0 21.531 0 42.989 0 64.519 0 9.176-4.48 13.655-13.655 13.655-97.971 0-195.87 0-293.841 0-9.104 0-13.655-4.48-13.655-13.655 0-21.242 0-42.555 0-63.797 0-10.187 4.191-14.378 14.378-14.378 48.624 0 97.249 0 145.873 0zM500.187 311.339c14.884 0 29.839 0 44.723 0 7.297 0 12.355-4.696 12.355-11.416s-4.985-11.488-12.283-11.488c-30.056 0-60.112 0-90.24 0-7.225 0-12.21 4.769-12.138 11.632 0.072 6.647 4.985 11.271 12.066 11.271 15.173 0 30.345 0 45.518 0zM396.797 322.827c12.788 0 22.903-10.115 22.903-22.976 0-12.788-10.187-22.903-22.976-22.903s-22.903 10.187-22.903 22.976c0 12.788 10.115 22.903 22.976 22.903zM580.24 299.924c0 3.829-0.072 7.659 0 11.416 0.072 6.647 4.985 11.488 11.56 11.488 6.358 0 11.271-4.913 11.343-11.271 0.072-7.731 0.072-15.462 0-23.265-0.072-6.43-4.985-11.271-11.343-11.343-6.503 0-11.488 4.913-11.56 11.488 0 3.829 0 7.659 0 11.488zM649.022 299.851c0-3.902 0.072-7.875 0-11.777-0.145-6.358-5.202-11.127-11.56-11.054-6.141 0.072-11.199 4.841-11.271 10.982-0.072 8.020-0.145 15.967 0 23.987 0.072 6.141 5.13 10.91 11.343 10.91s11.343-4.769 11.488-10.838c0.072-4.118 0-8.164 0-12.21zM499.826 173.775c-14.884 0-29.839 0-44.723 0-7.297 0-12.355 4.624-12.427 11.343 0 6.792 4.913 11.56 12.21 11.56 30.345 0 60.618 0 90.963 0 5.708 0 10.549-4.118 11.416-9.393 0.939-5.78-2.457-11.416-8.092-13.077-1.373-0.361-2.818-0.434-4.263-0.434-15.028 0-30.056 0-45.084 0zM419.701 185.118c0-12.788-10.187-22.903-22.976-22.831-12.788 0-22.831 10.187-22.831 22.976s10.187 22.831 22.976 22.831c12.716 0 22.831-10.115 22.831-22.976zM603.143 185.118c0-3.829 0.072-7.659 0-11.416-0.072-6.43-4.985-11.271-11.343-11.343-6.503-0.072-11.488 4.841-11.56 11.416-0.072 7.659-0.072 15.245 0 22.903 0.072 6.647 4.985 11.56 11.488 11.488 6.503 0 11.343-4.913 11.416-11.632 0.072-3.829 0-7.659 0-11.416zM626.119 185.407c0 3.829-0.072 7.659 0 11.416 0.072 6.43 4.985 11.271 11.343 11.271s11.416-4.769 11.488-11.127c0.072-7.875 0.072-15.751 0-23.626-0.072-6.358-5.13-11.127-11.56-11.127-6.286 0-11.271 4.913-11.343 11.343 0 3.974 0.072 7.948 0.072 11.849zM499.97 59.042c-15.028 0-30.056 0-45.084 0-7.225 0-12.283 4.769-12.21 11.56 0 6.719 5.058 11.343 12.355 11.343 29.984 0 59.895 0 89.879 0 7.297 0 12.355-4.696 12.427-11.343 0.072-6.936-4.985-11.56-12.572-11.56-14.956 0-29.839 0-44.795 0zM396.797 47.626c-12.788 0-22.976 10.115-22.976 22.903s10.115 22.976 22.903 22.976c12.788 0 22.976-10.115 22.976-22.903s-10.115-22.976-22.903-22.976zM580.24 70.891c0 3.829-0.072 7.659 0 11.416 0.145 6.358 5.13 11.127 11.488 11.127 6.141 0 11.271-4.841 11.343-10.91 0.145-8.020 0.145-15.967 0-23.987-0.072-6.286-5.274-11.054-11.705-10.982-6.141 0.072-11.054 4.913-11.199 11.127 0 4.118 0.072 8.164 0.072 12.21zM649.022 70.313c0-3.829 0.072-7.659 0-11.416-0.145-6.358-5.058-11.271-11.416-11.271s-11.416 4.841-11.488 11.199c-0.072 7.875-0.072 15.751 0 23.626 0.072 6.358 5.202 11.127 11.56 11.054 6.141-0.072 11.127-4.841 11.271-10.982 0.145-4.118 0.072-8.164 0.072-12.21zM140.093 850.108c17.701 0 35.475 0 53.176 0 0.434-0.217 0.867-0.506 1.301-0.578 16.256-3.829 26.010-16.112 26.010-32.802 0-3.396 0-6.864 0-10.476 1.879 0 3.324 0 4.769 0 58.956 0 117.84-0.289 176.796 0.145 19.291 0.145 34.319-15.317 34.247-34.030-0.361-71.022-0.361-142.044 0-213.065 0.072-19.146-15.173-34.319-34.102-34.174-73.406 0.361-146.884 0.145-220.29 0.145-1.373 0-2.818 0-4.407 0-0.072-1.012-0.072-1.734-0.145-2.457-0.361-5.563 0.145-11.416-1.228-16.762-3.829-15.678-19.146-25.793-35.041-23.843-16.112 1.951-28.322 15.823-28.394 32.296 0 3.54 0 7.081 0 10.765-4.046 0-7.514 0-10.91 0-17.846 0.072-32.151 14.306-32.151 32.224 0 72.25 0 144.428 0 216.678 0 17.846 14.378 32.079 32.224 32.151 3.54 0 7.081 0 10.91 0 0 4.118 0 7.875 0 11.56 0 9.537 3.685 17.412 10.549 23.915 4.696 4.407 10.549 6.575 16.69 8.309zM177.446 546.802c1.59 0 2.818 0 3.974 0 73.334 0 146.595 0 219.929 0 9.248 0 13.294 4.118 13.294 13.366 0 70.444 0 140.888 0 211.331 0 9.176-4.118 13.222-13.439 13.222-58.812 0-117.623 0-176.435 0-1.301 0-2.601 0-4.191 0 0-1.734 0-3.179 0-4.552 0-52.237 0-104.474 0-156.71 0-2.168 0.072-4.335-0.217-6.43-3.757-23.987-17.268-39.521-40.605-46.529-0.939-0.289-2.168-1.59-2.168-2.384-0.217-6.936-0.145-13.872-0.145-21.314zM199.049 719.263c0 32.224 0 64.447 0 96.598 0 8.309-4.335 12.644-12.572 12.644-12.788 0-25.649 0-38.437 0-9.754 0-13.728-3.974-13.728-13.728 0-57.583 0-115.167 0-172.75 0-6.43-0.145-12.933 0.072-19.363 0.65-21.82 21.025-36.775 41.688-30.634 13.944 4.191 22.976 16.834 22.976 32.368 0 31.646 0 63.291 0 94.864zM112.782 784.721c-3.107 0-5.78 0-8.526 0-8.815 0-13.077-4.191-13.077-12.933 0-70.661 0-141.321 0-211.982 0-8.815 4.191-13.005 12.933-13.005 16.040 0 32.079 0 48.119 0 1.156 0 2.312 0.072 3.613 0.145 0 7.297 0.072 14.233-0.145 21.169 0 0.867-1.445 2.24-2.529 2.529-24.999 7.225-40.532 27.6-40.532 53.61 0 52.020 0 103.968 0 155.988 0.145 1.301 0.145 2.746 0.145 4.48zM134.385 525.055c0-3.902-0.217-7.659 0.072-11.271 0.434-5.708 5.347-10.115 10.765-10.115 5.274 0 10.043 4.191 10.621 9.826 0.361 3.757 0.072 7.586 0.072 11.56-7.225 0-14.161 0-21.531 0zM317.611 763.119c21.169 0 42.411 0 63.58 0 7.731 0 11.849-4.263 11.921-11.994 0-13.655 0-27.311 0-40.966 0-7.297-4.335-11.705-11.488-11.705-42.628 0-85.255 0-127.883 0-7.225 0-11.488 4.407-11.488 11.705 0 13.8 0 27.527 0 41.327 0 7.442 4.335 11.705 11.849 11.705 21.097-0.072 42.339-0.072 63.508-0.072zM371.365 741.299c-36.053 0-71.744 0-107.364 0 0-7.225 0-14.233 0-21.169 35.908 0 71.6 0 107.364 0 0 7.153 0 14.017 0 21.169zM317.322 655.322c-1.879 0-3.829-0.072-5.708 0-5.636 0.289-10.332 5.347-10.26 10.91 0.145 5.491 4.696 10.404 10.187 10.549 4.046 0.145 8.164 0.145 12.21 0 5.636-0.217 10.332-5.274 10.26-10.91-0.145-5.491-4.696-10.332-10.187-10.621-2.24 0-4.407 0.072-6.503 0.072zM317.683 633.719c1.879 0 3.829 0.072 5.708 0 5.708-0.217 10.404-4.985 10.476-10.621 0.072-5.708-4.769-10.765-10.621-10.838-3.829-0.072-7.659-0.072-11.488 0-5.708 0.145-10.404 4.985-10.476 10.621-0.072 5.708 4.769 10.693 10.621 10.91 1.951 0 3.902-0.072 5.78-0.072zM317.756 590.585c2.023 0 4.046 0.072 6.069 0 5.491-0.289 10.043-5.202 10.043-10.693s-4.552-10.549-9.971-10.765c-4.191-0.217-8.381-0.145-12.572 0-5.419 0.217-10.043 5.202-10.043 10.693s4.552 10.476 9.971 10.765c2.168 0.145 4.335 0 6.503 0zM258.294 655.322c-1.806 0-3.613 0-5.347 0-6.286 0.145-10.838 4.769-10.765 10.982 0.072 5.925 4.624 10.476 10.765 10.549 3.685 0.072 7.442 0.072 11.127 0 5.852-0.145 10.332-4.769 10.404-10.549 0.072-5.997-4.407-10.765-10.404-10.91-1.951-0.145-3.829-0.072-5.78-0.072zM377.073 655.322c-1.806 0-3.613 0-5.347 0-6.358 0.072-10.91 4.696-10.91 10.765 0 6.141 4.624 10.693 10.982 10.765 3.613 0.072 7.153 0.072 10.765 0 6.069-0.145 10.621-4.769 10.549-10.765 0-5.997-4.552-10.621-10.621-10.765-1.806 0-3.613 0-5.419 0zM258.294 612.188c-1.806 0-3.613 0-5.347 0-6.286 0.145-10.838 4.769-10.765 10.91 0.072 5.925 4.624 10.476 10.765 10.549 3.685 0.072 7.442 0.072 11.127 0 5.852-0.145 10.332-4.769 10.404-10.549 0.072-5.997-4.407-10.765-10.404-10.982-1.951 0-3.829 0.072-5.78 0.072zM376.712 612.188c-1.806 0-3.613-0.072-5.347 0-6.069 0.145-10.549 4.769-10.549 10.765s4.552 10.621 10.621 10.693c3.685 0.072 7.442 0.072 11.127 0 6.069-0.145 10.621-4.769 10.549-10.765 0-5.997-4.552-10.621-10.621-10.765-1.951 0.072-3.829 0.072-5.78 0.072zM258.583 569.055c-2.023 0-4.046-0.072-6.069 0-5.852 0.217-10.332 4.841-10.332 10.693-0.072 5.997 4.48 10.693 10.476 10.838 3.829 0.072 7.659 0.072 11.488 0 5.852-0.145 10.332-4.841 10.332-10.621 0-5.997-4.48-10.693-10.476-10.838-1.806-0.072-3.613-0.072-5.419-0.072zM376.929 569.055c-1.806 0-3.613 0-5.347 0-6.286 0.145-10.838 4.769-10.765 10.982 0.072 5.925 4.624 10.476 10.765 10.549 3.685 0.072 7.442 0.072 11.127 0 5.852-0.145 10.332-4.769 10.404-10.549 0.072-5.997-4.407-10.765-10.404-10.91-1.951-0.072-3.902-0.072-5.78-0.072zM949.293 787.395c0-74.201 0-148.474 0-222.675-0.939-2.384-1.59-4.913-2.746-7.153-5.78-11.343-15.173-16.329-27.816-16.256-45.084 0.072-90.24 0.072-135.324 0.072-1.373 0-2.746 0-4.118 0 0-7.225 0-13.944 0-21.097 12.499 0 24.637 0 36.848 0 0-7.297 0-14.161 0-21.025-32.007 0-63.725 0-95.659 0 0 7.081 0 13.944 0 21.314 12.499 0 24.71 0 36.992 0 0 7.153 0 13.8 0 20.808-1.517 0-2.746 0-4.046 0-20.519 0-40.966 0-61.485 0-25.649 0-51.37-0.145-77.019 0.145-15.606 0.217-27.455 12.572-27.455 28.25-0.072 71.166-0.072 142.333 0.072 213.427 0 4.118 1.084 8.526 2.818 12.21 5.419 11.127 14.811 16.040 27.166 16.040 100.5-0.072 200.927 0 301.427 0 1.084 0 2.095 0 3.179-0.072 6.214-0.289 11.632-2.384 16.545-6.214 5.852-4.552 8.742-10.838 10.621-17.774zM927.98 613.489c0 1.445 0 2.457 0 3.54 0 54.549 0 109.098 0 163.574 0 7.008-2.457 9.465-9.682 9.465-99.994 0-199.988 0-299.982 0-7.297 0-9.682-2.457-9.682-9.754 0-54.26 0-108.592 0-162.852 0-1.228 0-2.529 0-3.902 106.641-0.072 212.704-0.072 319.345-0.072zM927.835 591.452c-106.424 0-212.632 0-319.056 0 0-7.586-0.145-14.956 0.072-22.325 0.145-3.54 2.457-5.78 6.069-6.286 1.445-0.217 2.818-0.217 4.263-0.217 99.416 0 198.832 0 298.248 0 1.084 0 2.095-0.072 3.179 0.072 4.335 0.434 7.008 2.529 7.153 6.792 0.289 7.225 0.072 14.522 0.072 21.964zM487.76 656.55c0-5.267-4.27-9.537-9.537-9.537s-9.537 4.27-9.537 9.537c0 5.267 4.27 9.537 9.537 9.537s9.537-4.27 9.537-9.537zM518.755 656.55c0-5.267-4.27-9.537-9.537-9.537s-9.537 4.27-9.537 9.537c0 5.267 4.27 9.537 9.537 9.537s9.537-4.27 9.537-9.537zM549.751 656.55c0-5.267-4.27-9.537-9.537-9.537s-9.537 4.27-9.537 9.537c0 5.267 4.27 9.537 9.537 9.537s9.537-4.27 9.537-9.537zM290.806 462.197c0-5.267-4.27-9.537-9.537-9.537s-9.537 4.27-9.537 9.537c0 5.267 4.27 9.537 9.537 9.537s9.537-4.27 9.537-9.537zM305.618 434.959c0-5.267-4.27-9.537-9.537-9.537s-9.537 4.27-9.537 9.537c0 5.267 4.27 9.537 9.537 9.537s9.537-4.27 9.537-9.537zM320.357 407.648c0-5.267-4.27-9.537-9.537-9.537s-9.537 4.27-9.537 9.537c0 5.267 4.27 9.537 9.537 9.537s9.537-4.27 9.537-9.537zM748.872 462.197c0-5.267-4.27-9.537-9.537-9.537s-9.537 4.27-9.537 9.537c0 5.267 4.27 9.537 9.537 9.537s9.537-4.27 9.537-9.537zM734.061 434.959c0-5.267-4.27-9.537-9.537-9.537s-9.537 4.27-9.537 9.537c0 5.267 4.27 9.537 9.537 9.537s9.537-4.27 9.537-9.537zM719.322 407.648c0-5.267-4.27-9.537-9.537-9.537s-9.537 4.27-9.537 9.537c0 5.267 4.27 9.537 9.537 9.537s9.537-4.27 9.537-9.537z" />
<glyph unicode="&#xe90b;" glyph-name="IOT" d="M491.806 222.399v249.118c0 4.696-3.829 8.453-8.453 8.453v0c-4.696 0-8.453-3.829-8.453-8.453v-249.19c-15.245-4.335-25.793-19.869-21.747-37.281 2.601-11.127 11.632-20.086 22.759-22.687 20.447-4.769 38.582 10.621 38.582 30.201-0.072 14.233-9.682 26.082-22.687 29.839zM487.832 175.798c-13.583-3.251-25.577 8.67-22.325 22.325 1.517 6.43 6.792 11.632 13.222 13.222 13.583 3.251 25.577-8.67 22.325-22.325-1.59-6.43-6.792-11.705-13.222-13.222zM795.545 183.962l-78.68 89.084c-4.046 4.552-6.286 10.476-6.286 16.618l-0.072 124.92c0 3.54-2.89 6.358-6.358 6.358v0c-3.54 0-6.358-2.818-6.358-6.358l-1.156-129.978c-0.072-4.552 1.517-8.887 4.407-12.427l81.859-99.488c-8.598-13.366-6.214-32.007 8.381-42.339 9.32-6.575 22.036-7.37 32.079-1.951 18.424 9.971 21.892 33.524 8.887 48.191-9.465 10.693-24.493 13.222-36.703 7.37zM820.399 142.996c-7.586-6.719-19.146-5.997-25.793 1.59-6.719 7.586-5.997 19.146 1.59 25.793 7.586 6.719 19.146 5.997 25.793-1.59 6.647-7.514 5.925-19.074-1.59-25.793zM226.432 230.925c0-49.347 0-91.324 0-140.815-46.24 0-92.336 0-138.648 0 0 56.789 0 113.36 0 170.221 46.023 0 84.749 0 130.845 0l22.831 24.926c0 1.084 0-1.084 0 0 0 19.363-13.439 28.9-32.729 28.9-34.391 0-68.782 0-103.245 0-19.363 0-32.874-13.294-32.874-32.729-0.072-75.935 0-151.87 0-227.804 0-2.818 0.145-5.78 0.867-8.453 3.974-15.245 15.389-24.276 31.212-24.348 34.825-0.145 69.649-0.072 104.401-0.072 5.058 0 9.898 0.867 14.45 3.107 11.994 6.069 17.774 16.040 17.774 29.261 0.072 38.076 0 76.152 0 114.227 0 29.695 0 52.165 0 81.859l-14.884-18.279zM99.127 298.551c2.023 0.65 4.191 0.723 6.286 0.723 34.391 0.072 68.782-0.145 103.173 0.145 11.127 0.072 18.496-7.659 17.918-18.063-0.072-1.879 0-3.829 0-5.997-46.529 0-92.48 0-138.431 0-2.023 11.127 1.012 20.086 11.054 23.192zM226.504 52.106c-0.217-10.187-6.647-16.401-16.834-16.401-27.383 0-54.766 0-82.076 0-7.803 0-15.678-0.072-23.481 0-9.898 0.072-16.401 6.575-16.473 16.473-0.072 7.514 0 15.028 0 22.759 46.529 0 92.48 0 138.648 0 0.145-0.723 0.289-1.373 0.289-2.023 0-7.008 0.145-13.944-0.072-20.808zM143.2 200.941c-13.005-14.667-9.537-38.22 8.887-48.191 10.043-5.419 22.759-4.624 32.079 1.951 14.595 10.332 16.979 28.972 8.381 42.339l82.221 99.994c2.601 3.179 4.046 7.225 3.974 11.343l-1.156 106.28c-0.072 3.468-2.89 6.358-6.358 6.358v0c-3.54 0-6.358-2.89-6.358-6.358l-0.072-100.572c0-6.214-2.24-12.138-6.358-16.834l-78.608-89.012c-12.21 5.852-27.238 3.324-36.631-7.297zM150.858 189.309c6.575 12.355 23.409 13.439 31.429 1.951 3.757-5.419 4.263-12.788 1.156-18.641-6.575-12.355-23.409-13.439-31.501-1.951-3.757 5.419-4.191 12.861-1.084 18.641zM952.978 548.030c-8.959 61.774-59.895 116.034-120.947 128.027-7.586 1.517-10.838 3.974-12.499 11.777-16.112 77.958-93.925 131.856-172.461 120.369-17.774-2.601-34.463-7.948-50.069-15.678-5.852-2.89-12.861-1.012-16.762 4.191-57.583 75.718-133.157 108.736-227.443 82.076-98.188-27.744-146.090-99.633-152.881-200.783-1.517-0.434-3.685-1.156-5.925-1.59-65.748-13.222-118.057-71.6-123.764-137.998-7.731-90.24 64.519-169.426 154.976-169.499 7.803 0 13.077 0 18.785 0 7.514 0 13.583 6.069 13.583 13.583v32.079c0 7.514 6.069 13.583 13.583 13.583h0.072c7.442 0 13.511-5.997 13.583-13.511l0.217-32.296c0.072-7.442 6.141-13.511 13.583-13.511 54.838 0 100.428 0 155.265 0 7.514 0 13.583 6.069 13.583 13.583v91.252c0 7.514 6.069 13.583 13.583 13.583h4.191c7.514 0 13.583-6.069 13.583-13.583v-91.18c0-7.514 6.069-13.583 13.583-13.583 57.872 0 106.424 0 164.297 0 7.514 0 13.583 6.069 13.583 13.583l0.072 32.151c0 7.514 6.069 13.583 13.583 13.583v0c7.514 0 13.583-6.069 13.583-13.583v-32.079c0-7.514 6.141-13.583 13.655-13.583 23.337 0 43.206 0 68.204 0 69.432 0 132.145 48.624 149.919 115.817 1.662 6.286 3.179 12.644 4.769 19.002 0.289 1.084 0.361 2.168 0.361 3.251v36.342c-0.361 1.517-1.228 3.035-1.445 4.624zM620.917 263.22c-3.974 3.107-8.381 4.769-13.366 4.985-0.867 0.072-1.734 0-2.601 0-37.715 0-68.204 0-105.991 0v-17.268c37.57 0 67.915 0 105.485 0 5.78 0 7.803-1.951 7.803-7.659 0-44.073 0-88.145 0-132.218 0-0.867 0-1.662 0-2.818-86.122 0-171.883 0-258.005 0 0 1.084 0 2.095 0 3.107 0 43.856 0 87.712 0 131.64 0 5.925 1.951 7.875 7.803 7.875 37.57 0 67.915 0 105.557 0v17.268c-37.787 0-68.421 0-106.208 0-9.971 0-17.557-3.974-21.964-13.005-1.445-2.962-2.312-6.575-2.312-9.826-0.145-57.511-0.145-114.95-0.072-172.461 0-12.644 9.537-22.687 22.181-22.831 20.736-0.289 41.472-0.072 62.28-0.145 16.545 0 33.091 0 49.708 0 1.012 0 2.023 0 3.251 0 0-5.636 0-11.054 0-16.834-9.898 0-19.797 0-29.839 0 0-5.997 0-11.488 0-17.196 25.793 0 51.442 0 77.308 0 0 5.563 0 11.127 0 16.979-9.826 0-19.652 0-29.767 0 0 5.78 0 11.199 0 17.051 1.084 0 2.24 0 3.324 0 36.486 0 72.9 0.072 109.387 0 10.187 0 17.774 3.974 22.47 13.15 0.939 1.806 1.517 3.829 2.24 5.78 0 59.968 0 119.935 0 179.903-1.59 5.78-3.902 10.838-8.67 14.522zM612.102 72.769c-0.145-3.468-2.24-5.13-5.78-5.491-0.867-0.072-1.734 0-2.601 0-80.342 0-160.684 0-240.954 0-1.156 0-2.312 0-3.396 0.145-2.89 0.434-4.769 2.24-4.913 5.058-0.217 5.925-0.072 11.921-0.072 18.063 85.978 0 171.738 0 257.788 0 0-5.997 0.217-11.921-0.072-17.774zM947.487 185.118c-43.206 41.327-86.411 82.726-129.617 124.126-1.806 1.734-4.046 3.035-6.141 4.48-1.517 0-3.035 0-4.552 0-1.662-1.084-3.468-2.023-4.841-3.324-21.386-20.447-38.798-36.992-60.184-57.439l12.138-13.8c19.724 18.93 35.403 33.813 55.127 52.67 40.966-39.304 81.787-78.391 122.897-117.84-1.084-0.145-1.734-0.289-2.384-0.289-6.358 0-12.788 0-19.146 0-6.358-0.072-10.043-3.757-10.043-10.187 0-37.498 0-74.996 0-112.493 0-8.092-3.324-11.488-11.416-11.488-53.321 0-106.641 0-159.889 0-8.092 0-11.488 3.396-11.488 11.416 0 37.426 0 74.851 0 112.204 0 6.936-3.613 10.549-10.549 10.549-6.792 0-13.655 0-21.314 0 17.99 17.196 31.501 30.056 49.347 47.107l-11.705 14.233c-19.797-19.002-35.33-33.669-55.127-52.67-5.13-4.913-6.936-10.621-4.407-17.34 2.312-6.286 7.803-9.754 15.245-9.826 5.708-0.072 11.416 0 17.123 0 1.012 0 2.023-0.072 3.107-0.145 0-1.445 0-2.601 0-3.757 0-33.885 0-67.771 0-101.656 0-16.618 11.777-28.394 28.322-28.394 54.188 0 108.303 0 162.49 0 16.762 0 28.467 11.705 28.467 28.539 0 33.885 0 67.771 0 101.656 0 1.156 0 2.24 0 3.757 1.228 0 2.24 0 3.251 0 5.708 0 11.416 0 17.123 0 5.491 0 10.115 1.879 13.294 6.43 1.228 1.734 1.951 3.902 2.89 5.852 0 2.095 0 4.191 0 6.286-1.373 4.624-4.552 8.020-8.020 11.343z" />
<glyph unicode="&#xe90c;" glyph-name="external-link" d="M725.333 384v-256c0-11.776-4.736-22.4-12.501-30.165s-18.389-12.501-30.165-12.501h-469.333c-11.776 0-22.4 4.736-30.165 12.501s-12.501 18.389-12.501 30.165v469.333c0 11.776 4.736 22.4 12.501 30.165s18.389 12.501 30.165 12.501h256c23.552 0 42.667 19.115 42.667 42.667s-19.115 42.667-42.667 42.667h-256c-35.328 0-67.413-14.379-90.496-37.504s-37.504-55.168-37.504-90.496v-469.333c0-35.328 14.379-67.413 37.504-90.496s55.168-37.504 90.496-37.504h469.333c35.328 0 67.413 14.379 90.496 37.504s37.504 55.168 37.504 90.496v256c0 23.552-19.115 42.667-42.667 42.667s-42.667-19.115-42.667-42.667zM456.832 311.168l396.501 396.501v-153.003c0-23.552 19.115-42.667 42.667-42.667s42.667 19.115 42.667 42.667v256c0 5.803-1.152 11.307-3.243 16.341s-5.163 9.728-9.216 13.781c-0.043 0.043-0.043 0.043-0.085 0.085-3.925 3.925-8.619 7.083-13.781 9.216-5.035 2.091-10.539 3.243-16.341 3.243h-256c-23.552 0-42.667-19.115-42.667-42.667s19.115-42.667 42.667-42.667h153.003l-396.501-396.501c-16.683-16.683-16.683-43.691 0-60.331s43.691-16.683 60.331 0z" />
<glyph unicode="&#xe90d;" glyph-name="link" d="M392.491 358.443c42.325-56.619 103.68-90.709 168.448-100.053s133.248 6.059 189.867 48.384c10.197 7.637 19.84 16 27.947 24.235l127.787 127.787c49.621 51.371 73.472 117.376 72.363 182.827s-27.264 130.603-78.123 179.669c-50.005 48.299-114.688 72.192-179.157 71.808-63.659-0.341-127.317-24.363-176.512-71.808l-73.856-73.429c-16.725-16.597-16.811-43.648-0.171-60.331s43.648-16.811 60.331-0.171l72.917 72.491c32.853 31.659 75.221 47.659 117.76 47.915 43.051 0.256 86.016-15.659 119.381-47.872 33.92-32.768 51.328-76.075 52.096-119.808s-15.147-87.637-47.36-121.003l-128.213-128.213c-4.864-4.949-11.221-10.539-18.261-15.787-37.76-28.245-83.285-38.485-126.592-32.256s-84.096 28.928-112.299 66.688c-14.123 18.859-40.832 22.741-59.733 8.619s-22.741-40.832-8.619-59.733zM631.509 494.891c-42.325 56.619-103.68 90.709-168.448 100.053s-133.291-6.059-189.909-48.384c-10.197-7.637-19.797-16-27.947-24.235l-127.787-127.787c-49.621-51.371-73.472-117.376-72.363-182.827s27.264-130.603 78.123-179.669c50.005-48.299 114.688-72.192 179.157-71.808 63.659 0.341 127.317 24.363 176.512 71.808l73.515 73.515c16.683 16.683 16.683 43.691 0 60.331s-43.691 16.683-60.331 0l-72.363-72.448c-32.853-31.659-75.221-47.659-117.76-47.915-43.051-0.256-86.016 15.659-119.381 47.872-33.92 32.768-51.328 76.075-52.096 119.808s15.147 87.637 47.36 121.003l128.213 128.213c4.864 4.949 11.221 10.539 18.261 15.787 37.76 28.245 83.285 38.485 126.592 32.256s84.096-28.928 112.299-66.688c14.123-18.859 40.832-22.741 59.733-8.619s22.741 40.832 8.619 59.733z" />
<glyph unicode="&#xe90e;" glyph-name="link-2" d="M640 597.334h128c47.147 0 89.728-19.072 120.661-50.005s50.005-73.515 50.005-120.661-19.072-89.728-50.005-120.661-73.515-50.005-120.661-50.005h-128c-23.552 0-42.667-19.115-42.667-42.667s19.115-42.667 42.667-42.667h128c70.699 0 134.741 28.715 181.035 74.965s74.965 110.336 74.965 181.035-28.715 134.741-74.965 181.035-110.336 74.965-181.035 74.965h-128c-23.552 0-42.667-19.115-42.667-42.667s19.115-42.667 42.667-42.667zM384 256h-128c-47.147 0-89.728 19.072-120.661 50.005s-50.005 73.515-50.005 120.661 19.072 89.728 50.005 120.661 73.515 50.005 120.661 50.005h128c23.552 0 42.667 19.115 42.667 42.667s-19.115 42.667-42.667 42.667h-128c-70.699 0-134.741-28.715-181.035-74.965s-74.965-110.336-74.965-181.035 28.715-134.741 74.965-181.035 110.336-74.965 181.035-74.965h128c23.552 0 42.667 19.115 42.667 42.667s-19.115 42.667-42.667 42.667zM341.333 384h341.333c23.552 0 42.667 19.115 42.667 42.667s-19.115 42.667-42.667 42.667h-341.333c-23.552 0-42.667-19.115-42.667-42.667s19.115-42.667 42.667-42.667z" />
<glyph unicode="&#xe90f;" glyph-name="log-in" d="M640 768h170.667c11.776 0 22.4-4.736 30.165-12.501s12.501-18.389 12.501-30.165v-597.333c0-11.776-4.736-22.4-12.501-30.165s-18.389-12.501-30.165-12.501h-170.667c-23.552 0-42.667-19.115-42.667-42.667s19.115-42.667 42.667-42.667h170.667c35.328 0 67.413 14.379 90.496 37.504s37.504 55.168 37.504 90.496v597.333c0 35.328-14.379 67.413-37.504 90.496s-55.168 37.504-90.496 37.504h-170.667c-23.552 0-42.667-19.115-42.667-42.667s19.115-42.667 42.667-42.667zM537.003 469.334h-409.003c-23.552 0-42.667-19.115-42.667-42.667s19.115-42.667 42.667-42.667h409.003l-140.501-140.501c-16.683-16.683-16.683-43.691 0-60.331s43.691-16.683 60.331 0l213.333 213.333c4.096 4.096 7.168 8.789 9.259 13.824s3.243 10.539 3.243 16.341c0 5.547-1.067 11.136-3.243 16.341-2.091 5.035-5.163 9.728-9.259 13.824l-213.333 213.333c-16.683 16.683-43.691 16.683-60.331 0s-16.683-43.691 0-60.331z" />
<glyph unicode="&#xe910;" glyph-name="log-out" d="M384 85.334h-170.667c-11.776 0-22.4 4.736-30.165 12.501s-12.501 18.389-12.501 30.165v597.333c0 11.776 4.736 22.4 12.501 30.165s18.389 12.501 30.165 12.501h170.667c23.552 0 42.667 19.115 42.667 42.667s-19.115 42.667-42.667 42.667h-170.667c-35.328 0-67.413-14.379-90.496-37.504s-37.504-55.168-37.504-90.496v-597.333c0-35.328 14.379-67.413 37.504-90.496s55.168-37.504 90.496-37.504h170.667c23.552 0 42.667 19.115 42.667 42.667s-19.115 42.667-42.667 42.667zM793.003 469.334h-409.003c-23.552 0-42.667-19.115-42.667-42.667s19.115-42.667 42.667-42.667h409.003l-140.501-140.501c-16.683-16.683-16.683-43.691 0-60.331s43.691-16.683 60.331 0l213.333 213.333c3.925 3.925 7.083 8.619 9.259 13.824 6.4 15.445 3.328 33.92-9.259 46.507l-213.333 213.333c-16.683 16.683-43.691 16.683-60.331 0s-16.683-43.691 0-60.331z" />
<glyph unicode="&#xe911;" glyph-name="paperclip" d="M884.608 497.366l-392.107-392.107c-41.685-41.685-96.256-62.507-150.955-62.507s-109.269 20.821-150.955 62.507-62.507 96.256-62.507 150.955 20.821 109.269 62.507 150.955l392.107 392.107c25.003 25.003 57.728 37.504 90.581 37.504s65.536-12.501 90.581-37.504 37.504-57.728 37.504-90.581-12.501-65.536-37.504-90.581l-392.533-392.107c-8.363-8.363-19.243-12.544-30.208-12.544s-21.845 4.181-30.208 12.501-12.501 19.2-12.501 30.208 4.181 21.845 12.501 30.208l362.24 361.813c16.683 16.64 16.683 43.648 0.043 60.331s-43.648 16.683-60.331 0.043l-362.24-361.813c-25.003-25.003-37.504-57.856-37.504-90.539s12.501-65.536 37.504-90.539 57.856-37.504 90.539-37.504 65.536 12.501 90.539 37.504l392.533 392.107c41.685 41.685 62.507 96.341 62.507 150.912s-20.864 109.269-62.507 150.912-96.341 62.507-150.912 62.507-109.269-20.864-150.912-62.507l-392.107-392.107c-58.325-58.325-87.509-134.869-87.509-211.285s29.184-152.96 87.509-211.285 134.869-87.509 211.285-87.509 152.96 29.184 211.285 87.509l392.107 392.107c16.683 16.683 16.683 43.691 0 60.331s-43.691 16.683-60.331 0z" />
<glyph unicode="&#xe912;" glyph-name="plus" d="M213.333 384h256v-256c0-23.552 19.115-42.667 42.667-42.667s42.667 19.115 42.667 42.667v256h256c23.552 0 42.667 19.115 42.667 42.667s-19.115 42.667-42.667 42.667h-256v256c0 23.552-19.115 42.667-42.667 42.667s-42.667-19.115-42.667-42.667v-256h-256c-23.552 0-42.667-19.115-42.667-42.667s19.115-42.667 42.667-42.667z" />
<glyph unicode="&#xe913;" glyph-name="share" d="M128 426.667v-341.333c0-35.328 14.379-67.413 37.504-90.496s55.168-37.504 90.496-37.504h512c35.328 0 67.413 14.379 90.496 37.504s37.504 55.168 37.504 90.496v341.333c0 23.552-19.115 42.667-42.667 42.667s-42.667-19.115-42.667-42.667v-341.333c0-11.776-4.736-22.4-12.501-30.165s-18.389-12.501-30.165-12.501h-512c-11.776 0-22.4 4.736-30.165 12.501s-12.501 18.389-12.501 30.165v341.333c0 23.552-19.115 42.667-42.667 42.667s-42.667-19.115-42.667-42.667zM469.333 750.336v-451.669c0-23.552 19.115-42.667 42.667-42.667s42.667 19.115 42.667 42.667v451.669l97.835-97.835c16.683-16.683 43.691-16.683 60.331 0s16.683 43.691 0 60.331l-170.667 170.667c-3.925 3.925-8.619 7.083-13.824 9.259-10.453 4.309-22.229 4.309-32.683 0-5.035-2.091-9.728-5.163-13.824-9.259l-170.667-170.667c-16.683-16.683-16.683-43.691 0-60.331s43.691-16.683 60.331 0z" />
<glyph unicode="&#xe914;" glyph-name="tag" d="M908.672 336.342c24.875 25.003 37.291 57.685 37.291 90.24 0.043 32.597-12.373 65.365-37.291 90.453l-366.507 366.507c-7.723 7.68-18.389 12.459-30.165 12.459h-426.667c-23.552 0-42.667-19.115-42.667-42.667v-426.667c0-10.923 4.181-21.845 12.501-30.208l366.592-366.165c25.003-24.96 57.856-37.461 90.539-37.419s65.536 12.544 90.453 37.504zM848.341 396.672l-305.92-305.92c-8.363-8.363-19.2-12.544-30.165-12.544s-21.845 4.139-30.165 12.459l-354.091 353.707v366.293h366.336l354.005-354.005c8.192-8.235 12.331-19.072 12.331-30.037 0-10.923-4.139-21.717-12.331-29.952zM298.667 597.334c23.552 0 42.667 19.115 42.667 42.667s-19.115 42.667-42.667 42.667-42.667-19.115-42.667-42.667 19.115-42.667 42.667-42.667z" />
<glyph unicode="&#xe915;" glyph-name="trash-2" d="M768 640v-554.667c0-11.776-4.736-22.4-12.501-30.165s-18.389-12.501-30.165-12.501h-426.667c-11.776 0-22.4 4.736-30.165 12.501s-12.501 18.389-12.501 30.165v554.667zM725.333 725.334v42.667c0 35.328-14.379 67.413-37.504 90.496s-55.168 37.504-90.496 37.504h-170.667c-35.328 0-67.413-14.379-90.496-37.504s-37.504-55.168-37.504-90.496v-42.667h-170.667c-23.552 0-42.667-19.115-42.667-42.667s19.115-42.667 42.667-42.667h42.667v-554.667c0-35.328 14.379-67.413 37.504-90.496s55.168-37.504 90.496-37.504h426.667c35.328 0 67.413 14.379 90.496 37.504s37.504 55.168 37.504 90.496v554.667h42.667c23.552 0 42.667 19.115 42.667 42.667s-19.115 42.667-42.667 42.667zM384 725.334v42.667c0 11.776 4.736 22.4 12.501 30.165s18.389 12.501 30.165 12.501h170.667c11.776 0 22.4-4.736 30.165-12.501s12.501-18.389 12.501-30.165v-42.667zM384 469.334v-256c0-23.552 19.115-42.667 42.667-42.667s42.667 19.115 42.667 42.667v256c0 23.552-19.115 42.667-42.667 42.667s-42.667-19.115-42.667-42.667zM554.667 469.334v-256c0-23.552 19.115-42.667 42.667-42.667s42.667 19.115 42.667 42.667v256c0 23.552-19.115 42.667-42.667 42.667s-42.667-19.115-42.667-42.667z" />
<glyph unicode="&#xe916;" glyph-name="user" d="M896 42.667v85.333c0 58.88-23.936 112.299-62.464 150.869s-91.989 62.464-150.869 62.464h-341.333c-58.88 0-112.299-23.936-150.869-62.464s-62.464-91.989-62.464-150.869v-85.333c0-23.552 19.115-42.667 42.667-42.667s42.667 19.115 42.667 42.667v85.333c0 35.371 14.293 67.285 37.504 90.496s55.125 37.504 90.496 37.504h341.333c35.371 0 67.285-14.293 90.496-37.504s37.504-55.125 37.504-90.496v-85.333c0-23.552 19.115-42.667 42.667-42.667s42.667 19.115 42.667 42.667zM725.333 640c0 58.88-23.936 112.299-62.464 150.869s-91.989 62.464-150.869 62.464-112.299-23.936-150.869-62.464-62.464-91.989-62.464-150.869 23.936-112.299 62.464-150.869 91.989-62.464 150.869-62.464 112.299 23.936 150.869 62.464 62.464 91.989 62.464 150.869zM640 640c0-35.371-14.293-67.285-37.504-90.496s-55.125-37.504-90.496-37.504-67.285 14.293-90.496 37.504-37.504 55.125-37.504 90.496 14.293 67.285 37.504 90.496 55.125 37.504 90.496 37.504 67.285-14.293 90.496-37.504 37.504-55.125 37.504-90.496z" />
<glyph unicode="&#xe917;" glyph-name="instagram" d="M512 960c-139.093 0-156.459-0.64-211.072-3.072-54.528-2.56-91.648-11.136-124.288-23.808-33.664-13.056-62.251-30.592-90.709-59.051s-46.037-57.003-59.051-90.709c-12.672-32.64-21.291-69.76-23.808-124.288-2.56-54.613-3.072-71.979-3.072-211.072s0.64-156.459 3.072-211.072c2.56-54.485 11.136-91.648 23.808-124.288 13.056-33.621 30.592-62.251 59.051-90.709 28.459-28.416 57.003-46.037 90.709-59.051 32.683-12.629 69.803-21.291 124.288-23.808 54.613-2.56 71.979-3.072 211.072-3.072s156.459 0.64 211.072 3.072c54.485 2.56 91.648 11.179 124.288 23.808 33.621 13.056 62.251 30.635 90.709 59.051 28.416 28.459 46.037 56.96 59.051 90.709 12.629 32.64 21.291 69.803 23.808 124.288 2.56 54.613 3.072 71.979 3.072 211.072s-0.64 156.459-3.072 211.072c-2.56 54.485-11.179 91.691-23.808 124.288-13.056 33.664-30.635 62.251-59.051 90.709-28.459 28.459-56.96 46.037-90.709 59.051-32.64 12.672-69.803 21.291-124.288 23.808-54.613 2.56-71.979 3.072-211.072 3.072zM512 867.84c136.661 0 152.96-0.683 206.933-3.029 49.92-2.347 77.013-10.624 95.019-17.707 23.979-9.259 40.96-20.352 58.965-38.229 17.877-17.92 28.971-34.944 38.229-58.923 6.997-18.005 15.36-45.099 17.621-95.019 2.432-54.016 2.987-70.229 2.987-206.933s-0.64-152.96-3.157-206.933c-2.603-49.92-10.923-77.013-17.963-95.019-9.557-23.979-20.437-40.96-38.357-58.965-17.877-17.877-35.157-28.971-58.88-38.229-17.92-6.997-45.44-15.36-95.36-17.621-54.357-2.432-70.357-2.987-207.317-2.987-137.003 0-153.003 0.64-207.317 3.157-49.963 2.603-77.483 10.923-95.403 17.963-24.277 9.557-40.96 20.437-58.837 38.357-17.963 17.877-29.44 35.157-38.4 58.88-7.040 17.92-15.317 45.44-17.92 95.36-1.92 53.76-2.603 70.357-2.603 206.677 0 136.363 0.683 153.003 2.603 207.403 2.603 49.92 10.88 77.397 17.92 95.317 8.96 24.32 20.437 40.96 38.4 58.923 17.877 17.877 34.56 29.397 58.837 38.315 17.92 7.083 44.843 15.403 94.763 17.963 54.4 1.92 70.4 2.56 207.317 2.56zM512 710.912c-145.28 0-262.912-117.76-262.912-262.912 0-145.28 117.76-262.912 262.912-262.912 145.28 0 262.912 117.76 262.912 262.912 0 145.28-117.76 262.912-262.912 262.912zM512 277.333c-94.293 0-170.667 76.373-170.667 170.667s76.373 170.667 170.667 170.667 170.667-76.373 170.667-170.667-76.373-170.667-170.667-170.667zM846.763 721.28c0-33.92-27.563-61.44-61.44-61.44-33.92 0-61.44 27.563-61.44 61.44s27.563 61.397 61.44 61.397c33.835 0.043 61.44-27.52 61.44-61.397z" />
<glyph unicode="&#xe918;" glyph-name="line" d="M826.24 539.179c14.891 0 26.88-12.16 26.88-26.923 0-14.72-11.989-26.88-26.88-26.88h-74.88v-48h74.88c14.891 0 26.88-12.075 26.88-26.88 0-14.677-11.989-26.837-26.88-26.837h-101.803c-14.72 0-26.752 12.16-26.752 26.837v203.563c0 14.72 12.032 26.88 26.88 26.88h101.803c14.763 0 26.752-12.16 26.752-26.88 0-14.891-11.989-26.88-26.88-26.88h-74.88v-48zM661.76 410.496c0-11.52-7.424-21.76-18.432-25.429-2.731-0.896-5.675-1.323-8.491-1.323-9.003 0-16.683 3.84-21.76 10.667l-104.235 141.525v-125.44c0-14.677-11.904-26.837-26.923-26.837-14.763 0-26.709 12.16-26.709 26.837v203.563c0 11.52 7.381 21.76 18.347 25.387 2.56 0.981 5.803 1.408 8.277 1.408 8.32 0 16-4.437 21.12-10.837l105.045-142.080v126.123c0 14.72 12.032 26.88 26.88 26.88 14.72 0 26.88-12.16 26.88-26.88zM416.811 410.496c0-14.677-12.032-26.837-26.923-26.837-14.72 0-26.752 12.16-26.752 26.837v203.563c0 14.72 12.032 26.88 26.88 26.88 14.763 0 26.795-12.16 26.795-26.88zM311.595 383.659h-101.803c-14.72 0-26.88 12.16-26.88 26.837v203.563c0 14.72 12.16 26.88 26.88 26.88 14.848 0 26.88-12.16 26.88-26.88v-176.683h74.923c14.848 0 26.837-12.075 26.837-26.88 0-14.677-12.032-26.837-26.837-26.837zM1024 519.936c0 229.163-229.76 415.659-512 415.659s-512-186.496-512-415.659c0-205.269 182.187-377.259 428.16-409.941 16.683-3.499 39.381-11.008 45.141-25.173 5.12-12.843 3.371-32.683 1.621-46.080l-6.997-43.52c-1.92-12.843-10.24-50.603 44.757-27.52 55.083 22.997 295.083 173.995 402.603 297.6 73.557 80.597 108.715 163.157 108.715 254.635z" />
<glyph unicode="&#xe919;" glyph-name="skype" d="M514.944 154.709c-171.648 0-248.32 84.437-248.32 147.797 0 32.64 23.936 55.296 56.875 55.296 73.515 0 54.315-105.685 191.445-105.685 70.016 0 108.8 38.187 108.8 77.269 0 23.509-11.477 49.493-57.771 60.971l-152.576 38.187c-122.88 30.891-145.195 97.536-145.195 160.043 0 130.005 122.069 178.816 236.757 178.816 105.429 0 230.101-58.581 230.101-136.491 0-33.451-29.355-52.907-61.995-52.907-62.677 0-51.115 86.912-177.664 86.912-62.677 0-97.792-28.331-97.792-68.992s49.195-53.675 92.032-63.445l112.512-25.045c123.349-27.691 154.624-100.096 154.624-168.277 0-105.643-81.152-184.491-244.139-184.491zM985.557 362.965l-1.237-5.76-1.877 10.24c0.64-1.92 1.877-3.157 2.517-5.12 5.12 28.8 7.723 58.155 7.723 87.552 0 65.237-12.843 128.512-38.315 188.587-24.277 57.515-59.52 109.312-103.552 153.429-44.757 44.075-95.872 79.189-153.387 103.509-56.235 26.923-119.509 39.68-184.661 39.68-30.72 0-61.611-2.987-91.435-8.704l5.077-2.56-10.197 1.408 5.077 1.067c-41.131 22.016-87.253 33.707-134.101 33.707-76.331 0-148.053-29.781-202.069-83.925-54.016-54.101-83.755-126.123-83.755-202.624 0-48.768 12.459-96.64 36.011-139.008l0.853 5.291 1.749-10.197-2.56 4.907c-4.864-27.52-7.339-55.424-7.339-83.413 0-65.28 12.8-128.725 37.717-188.416 24.235-58.112 58.795-109.909 103.552-153.984 44.117-44.8 95.872-79.232 153.387-104.192 59.477-25.6 122.752-38.315 187.904-38.315 28.117 0 56.917 2.56 84.352 7.637l-5.077 2.645 10.24-1.963-5.76-1.28c42.752-24.277 90.709-37.163 140.544-37.163 76.075 0 147.584 29.44 201.941 83.755 53.717 53.717 83.712 125.909 83.712 202.624 0 48.555-12.757 96.512-36.395 139.349z" />
<glyph unicode="&#xe91a;" glyph-name="twitter" d="M1022.037 765.056c-37.76-16.597-78.080-27.904-120.533-33.067 43.264 26.069 76.544 67.157 92.288 116.181-40.576-23.68-85.547-40.917-133.419-50.517-38.229 40.917-92.715 66.517-153.216 66.517-115.925 0-209.92-93.995-209.92-209.792 0-16.64 1.92-32.64 5.419-47.957-174.507 8.235-329.173 92.032-432.683 218.709-18.219-30.805-28.416-66.603-28.416-105.6 0-72.96 37.12-137.088 93.355-174.763-34.432 1.109-66.816 10.581-95.061 26.283v-2.603c0-101.76 72.235-186.624 168.363-205.952-17.621-4.736-36.224-7.296-55.296-7.296-13.397 0-26.24 1.28-39.083 3.669 26.923-83.328 104.32-144.085 196.437-145.792-71.68-56.277-162.517-89.813-260.352-89.813-16.64 0-33.237 0.981-49.92 2.859 93.397-59.477 203.435-94.251 322.432-94.251 386.304 0 597.291 319.829 597.291 596.736 0 8.917 0 17.92-0.64 26.88 41.003 29.397 76.8 66.56 104.96 108.715z" />
<glyph unicode="&#xe91b;" glyph-name="wechat" d="M1004.416 416.085c-25.984 58.88-75.008 105.643-131.925 134.443-100.437 50.859-225.323 50.56-325.504-1.28-69.589-35.712-127.701-99.712-144.171-177.579-13.568-57.344-1.408-119.083 29.013-169.003 45.269-75.179 127.104-123.179 212.096-138.581 61.568-12.501 125.269-5.077 185.088 12.16 35.925-13.909 67.925-36.437 102.741-53.163-9.003 30.165-18.603 59.989-28.843 89.685 39.083 27.733 74.496 62.336 95.744 105.771 31.744 60.373 33.664 135.296 5.76 197.547zM580.992 819.968c-106.453 59.904-239.019 68.907-353.536 27.52-75.264-27.093-143.36-77.44-185.429-145.92-38.187-61.867-52.48-139.008-34.091-209.792 18.475-78.507 73.003-144.341 139.179-188.288-12.8-36.267-24.96-72.491-36.48-109.013 41.6 21.76 83.2 44.501 124.843 66.603 49.92-16 103.040-23.851 156.16-22.101-14.080 40.235-17.28 83.84-10.88 125.909 9.6 58.496 41.6 112 85.077 151.637 73.643 68.907 177.963 97.963 277.163 90.923-18.603 91.093-82.603 168.064-163.157 212.48zM654.933 393.771c-8.917-27.819-49.323-36.181-68.907-15.019-21.589 19.584-13.184 60.501 15.147 69.248 31.317 13.227 67.499-22.912 53.76-54.229zM859.52 389.845c-10.923-25.003-48.683-30.848-67.243-11.52-8.917 8.149-11.52 20.437-14.677 31.147 4.437 19.541 17.92 39.808 39.68 40.747 30.080 4.181 57.003-32.981 41.6-60.416zM554.24 665.216c0.341-41.003-54.4-66.603-85.12-38.784-31.872 22.827-22.827 78.379 14.592 89.856 33.493 13.44 73.088-14.677 70.443-50.56zM295.723 654.805c-7.339-35.627-55.083-52.821-83.029-28.928-32.384 22.827-23.296 79.403 14.72 90.923 37.248 14.336 79.573-23.467 68.309-61.995z" />
<glyph unicode="&#xe91c;" glyph-name="youtube" d="M1002.453 695.253c-12.365 43.307-45.781 76.722-88.183 88.866l-0.905 0.222c-79.787 21.376-400.896 21.376-400.896 21.376s-320.299 0.427-400.896-21.376c-43.307-12.365-76.722-45.781-88.866-88.183l-0.222-0.905c-14.173-72.978-22.281-156.904-22.281-242.723 0-1.743 0.003-3.484 0.010-5.225l-0.001 0.268c-0.004-1.198-0.006-2.617-0.006-4.035 0-85.813 8.107-169.732 23.598-251.033l-1.32 8.327c12.365-43.307 45.781-76.722 88.183-88.866l0.905-0.222c79.701-21.419 400.896-21.419 400.896-21.419s320.256 0 400.896 21.419c43.307 12.365 76.722 45.781 88.866 88.183l0.222 0.905c13.59 71.472 21.364 153.686 21.364 237.715 0 3.173-0.011 6.344-0.033 9.513l0.003-0.486c0.024 2.951 0.037 6.439 0.037 9.929 0 84.041-7.776 166.267-22.648 245.996l1.278-8.245zM409.984 294.357v306.901l267.264-153.685z" />
<glyph unicode="&#xe91d;" glyph-name="map-pin" d="M938.667 512c0 117.803-47.787 224.555-124.971 301.696s-183.893 124.971-301.696 124.971-224.555-47.787-301.696-124.971-124.971-183.893-124.971-301.696c0-24.277 2.261-48.128 6.4-71.509 11.691-66.048 38.357-128.171 71.765-184.32 116.565-195.883 324.821-334.336 324.821-334.336 14.123-9.259 32.64-9.771 47.317 0 0 0 208.299 138.453 324.821 334.336 33.408 56.149 60.075 118.272 71.765 184.32 4.181 23.381 6.443 47.232 6.443 71.509zM853.333 512c0-18.944-1.749-37.845-5.077-56.661-9.429-53.333-31.445-105.728-61.099-155.563-81.579-137.131-214.869-245.205-271.744-287.573-59.648 39.083-195.755 148.352-278.613 287.573-29.653 49.835-51.669 102.229-61.099 155.563-3.285 18.816-5.035 37.717-5.035 56.661 0 94.251 38.144 179.541 99.968 241.365s147.115 99.968 241.365 99.968 179.541-38.144 241.365-99.968 99.968-147.115 99.968-241.365zM682.667 512c0 47.104-19.157 89.856-50.005 120.661s-73.557 50.005-120.661 50.005-89.856-19.157-120.661-50.005-50.005-73.557-50.005-120.661 19.157-89.856 50.005-120.661 73.557-50.005 120.661-50.005 89.856 19.157 120.661 50.005 50.005 73.557 50.005 120.661zM597.333 512c0-23.595-9.515-44.843-25.003-60.331s-36.736-25.003-60.331-25.003-44.843 9.515-60.331 25.003-25.003 36.736-25.003 60.331 9.515 44.843 25.003 60.331 36.736 25.003 60.331 25.003 44.843-9.515 60.331-25.003 25.003-36.736 25.003-60.331z" />
<glyph unicode="&#xe91e;" glyph-name="corner-up-left" d="M896 85.334v298.667c0 58.88-23.936 112.299-62.464 150.869s-91.989 62.464-150.869 62.464h-409.003l140.501 140.501c16.683 16.683 16.683 43.691 0 60.331s-43.691 16.683-60.331 0l-213.333-213.333c-4.096-4.096-7.168-8.789-9.259-13.824s-3.243-10.539-3.243-16.341 1.152-11.307 3.243-16.341c2.091-5.035 5.163-9.728 9.259-13.824l213.333-213.333c16.683-16.683 43.691-16.683 60.331 0s16.683 43.691 0 60.331l-140.501 140.501h409.003c35.371 0 67.285-14.293 90.496-37.504s37.504-55.125 37.504-90.496v-298.667c0-23.552 19.115-42.667 42.667-42.667s42.667 19.115 42.667 42.667z" />
<glyph unicode="&#xe91f;" glyph-name="shopping-cart" d="M469.333 42.667c0 23.552-9.6 44.928-25.003 60.331s-36.779 25.003-60.331 25.003-44.928-9.6-60.331-25.003-25.003-36.779-25.003-60.331 9.6-44.928 25.003-60.331 36.779-25.003 60.331-25.003 44.928 9.6 60.331 25.003 25.003 36.779 25.003 60.331zM938.667 42.667c0 23.552-9.6 44.928-25.003 60.331s-36.779 25.003-60.331 25.003-44.928-9.6-60.331-25.003-25.003-36.779-25.003-60.331 9.6-44.928 25.003-60.331 36.779-25.003 60.331-25.003 44.928 9.6 60.331 25.003 25.003 36.779 25.003 60.331zM308.096 640h621.653l-58.496-306.816c-1.963-9.728-7.083-18.133-14.165-24.235-7.68-6.656-17.621-10.496-29.355-10.283h-415.317c-9.899-0.128-19.243 3.029-26.709 8.661-8.107 6.101-14.037 14.976-16.171 25.728zM42.667 853.334h135.68l36.181-180.864c4.608-18.645 21.419-32.469 41.472-32.469h52.096l-17.067 85.333h-35.029c-23.552 0-42.667-19.115-42.667-42.667 0-2.261 0.171-4.48 0.512-6.613 0.171-1.195 0.427-2.432 0.725-3.584l71.296-356.139c6.357-32.043 24.32-59.008 48.64-77.269 22.229-16.725 49.92-26.155 79.104-25.728h414.123c31.915-0.64 62.080 11.136 85.12 31.019 21.077 18.176 36.181 43.221 42.027 71.808l68.352 358.485c4.395 23.168-10.752 45.483-33.92 49.92-2.773 0.555-5.547 0.811-7.979 0.768h-690.347l-35.84 179.029c-4.011 19.712-21.205 34.304-41.813 34.304h-170.667c-23.552 0-42.667-19.115-42.667-42.667s19.115-42.667 42.667-42.667z" />
<glyph unicode="&#xe967;" glyph-name="undo2" d="M761.862-64c113.726 206.032 132.888 520.306-313.862 509.824v-253.824l-384 384 384 384v-248.372c534.962 13.942 594.57-472.214 313.862-775.628z" />
<glyph unicode="&#xe9c9;" glyph-name="sphere" d="M480 896c-265.096 0-480-214.904-480-480 0-265.098 214.904-480 480-480 265.098 0 480 214.902 480 480 0 265.096-214.902 480-480 480zM751.59 256c8.58 40.454 13.996 83.392 15.758 128h127.446c-3.336-44.196-13.624-87.114-30.68-128h-112.524zM208.41 576c-8.58-40.454-13.996-83.392-15.758-128h-127.444c3.336 44.194 13.622 87.114 30.678 128h112.524zM686.036 576c9.614-40.962 15.398-83.854 17.28-128h-191.316v128h174.036zM512 640v187.338c14.59-4.246 29.044-11.37 43.228-21.37 26.582-18.74 52.012-47.608 73.54-83.486 14.882-24.802 27.752-52.416 38.496-82.484h-155.264zM331.232 722.484c21.528 35.878 46.956 64.748 73.54 83.486 14.182 10 28.638 17.124 43.228 21.37v-187.34h-155.264c10.746 30.066 23.616 57.68 38.496 82.484zM448 576v-128h-191.314c1.88 44.146 7.666 87.038 17.278 128h174.036zM95.888 256c-17.056 40.886-27.342 83.804-30.678 128h127.444c1.762-44.608 7.178-87.546 15.758-128h-112.524zM256.686 384h191.314v-128h-174.036c-9.612 40.96-15.398 83.854-17.278 128zM448 192v-187.34c-14.588 4.246-29.044 11.372-43.228 21.37-26.584 18.74-52.014 47.61-73.54 83.486-14.882 24.804-27.75 52.418-38.498 82.484h155.266zM628.768 109.516c-21.528-35.876-46.958-64.746-73.54-83.486-14.184-9.998-28.638-17.124-43.228-21.37v187.34h155.266c-10.746-30.066-23.616-57.68-38.498-82.484zM512 256v128h191.314c-1.88-44.146-7.666-87.040-17.28-128h-174.034zM767.348 448c-1.762 44.608-7.178 87.546-15.758 128h112.524c17.056-40.886 27.344-83.806 30.68-128h-127.446zM830.658 640h-95.9c-18.638 58.762-44.376 110.294-75.316 151.428 42.536-20.34 81.058-47.616 114.714-81.272 21.48-21.478 40.362-44.938 56.502-70.156zM185.844 710.156c33.658 33.658 72.18 60.932 114.714 81.272-30.942-41.134-56.676-92.666-75.316-151.428h-95.898c16.138 25.218 35.022 48.678 56.5 70.156zM129.344 192h95.898c18.64-58.762 44.376-110.294 75.318-151.43-42.536 20.34-81.058 47.616-114.714 81.274-21.48 21.478-40.364 44.938-56.502 70.156zM774.156 121.844c-33.656-33.658-72.18-60.934-114.714-81.274 30.942 41.134 56.678 92.668 75.316 151.43h95.9c-16.14-25.218-35.022-48.678-56.502-70.156z" />
<glyph unicode="&#xea90;" glyph-name="facebook" d="M608 768h160v192h-160c-123.514 0-224-100.486-224-224v-96h-128v-192h128v-512h192v512h160l32 192h-192v96c0 17.346 14.654 32 32 32z" />
<glyph unicode="&#xea91;" glyph-name="facebook2" d="M928 960h-832c-52.8 0-96-43.2-96-96v-832c0-52.8 43.2-96 96-96h416v448h-128v128h128v64c0 105.8 86.2 192 192 192h128v-128h-128c-35.2 0-64-28.8-64-64v-64h192l-32-128h-160v-448h288c52.8 0 96 43.2 96 96v832c0 52.8-43.2 96-96 96z" />
</font>
</defs>
</svg>
