<?xml version="1.0" encoding="utf-8"?>
<!-- Generator: Adobe Illustrator 25.0.0, SVG Export Plug-In . SVG Version: 6.00 Build 0)  -->
<svg version="1.1" id="圖層_1" xmlns="http://www.w3.org/2000/svg" xmlns:xlink="http://www.w3.org/1999/xlink" x="0px" y="0px"
	 viewBox="0 0 54.65 62.57" style="enable-background:new 0 0 54.65 62.57;" xml:space="preserve">
<style type="text/css">
	.st0{fill:#FFFFFF;}
	.st1{fill:url(#SVGID_1_);}
	.st2{fill:url(#SVGID_2_);}
</style>
<g>
	<path class="st0" d="M51.23,16.4C46.26,7.63,35.96,0,25.21,0C5.96,0,0,0,0,0v26.97c0,11.56,9.27,20.99,20.82,21.19
		c3,0.04,5.97-0.69,8.55-2.21c0.91-0.54,1.86-1.2,2.78-1.99c0.73,2.44,3,4.22,5.68,4.22V31.72c0-0.15,0.02-0.29,0.02-0.43
		c0-0.59-0.03-1.15-0.08-1.7c-0.87,0.75-1.99,1.22-3.23,1.22c-0.98,0-1.9-0.29-2.67-0.79c0.04,0.4,0.06,0.82,0.06,1.26H31.9v0.95
		c-0.58,9.75-10.1,9.25-10.1,9.25h0c-2-0.08-3.9-0.53-5.65-1.26c-2.27-1.28-5.08-3.75-5.08-8.21c0-5.25,2.41-8.04,4.81-9.52
		c2.67-1.64,5.97-1.92,8.97-1c1.66,0.51,3.5,1.44,4.89,3.08c0.55-2.1,2.41-3.65,4.66-3.71c-4.12-4.99-10.82-6.28-13.7-6.28
		c-3.42,0-11.42,2.44-14.57,10.22V6.22c0,0,3.64-0.06,19.08-0.06c4.25,0,12.54,4.25,15.66,7.07c10.17,9.22,11.12,22.6,2.66,33.42
		c-4.04,5.17-13.23,9.71-16.81,9.71c-8.32,0-4.87,0-9.48,0c-5.21,0-5.82,6.22-5.82,6.22c1.23,0,4.83,0,14.19,0
		c10.33,0,20.34-7.39,25.25-15.61C55.76,38.75,55.93,24.71,51.23,16.4z"/>
	
		<linearGradient id="SVGID_1_" gradientUnits="userSpaceOnUse" x1="9.9169" y1="-9.0176" x2="9.9169" y2="-18.5145" gradientTransform="matrix(1 0 0 1 25.0782 55.7673)">
		<stop  offset="0" style="stop-color:#F7F7F7"/>
		<stop  offset="1" style="stop-color:#888888"/>
	</linearGradient>
	<path class="st1" d="M32.16,44.02l0.53-0.46c3.1-3,3.96-5.43,4.62-7.7c0.38-1.13,0.53-3.68,0.53-3.68v16.05l-1-0.08
		C35,47.84,33.1,46.74,32.16,44.02L32.16,44.02z"/>
	
		<linearGradient id="SVGID_2_" gradientUnits="userSpaceOnUse" x1="-13.0228" y1="-15.1628" x2="-13.0228" y2="-28.8457" gradientTransform="matrix(1 0 0 1 25.0782 55.7673)">
		<stop  offset="0" style="stop-color:#717071"/>
		<stop  offset="0.234" style="stop-color:#A3A2A3"/>
		<stop  offset="0.4987" style="stop-color:#D4D4D4"/>
		<stop  offset="0.6996" style="stop-color:#F3F3F3"/>
		<stop  offset="0.8115" style="stop-color:#FFFFFF"/>
	</linearGradient>
	<path class="st2" d="M7.49,31.73c0.56,1.34,1.04,2.43,3.49,5.06c2.86,3.11,7,4.08,7,4.08s-3.35-1.04-4.97-3.24
		c-1.98-2.64-2.06-5.05-1.92-7.06c0.15-2.18,0.99-3.81,0.99-3.81l-5.41-3.21l-0.54,1.24C6.13,24.79,6.13,28.46,7.49,31.73z"/>
	<circle class="st0" cx="34.54" cy="25.83" r="3.29"/>
</g>
</svg>
