<svg id="圖層_1" data-name="圖層 1" xmlns="http://www.w3.org/2000/svg" xmlns:xlink="http://www.w3.org/1999/xlink" viewBox="0 0 54.65 83.84"><defs><linearGradient id="未命名漸層_5" x1="9.92" y1="1080.86" x2="9.92" y2="1090.36" gradientTransform="matrix(1, 0, 0, -1, 25.08, 1127.61)" gradientUnits="userSpaceOnUse"><stop offset="0" stop-color="#f7f7f7"/><stop offset="1" stop-color="#898989"/></linearGradient><linearGradient id="未命名漸層_4" x1="-13.02" y1="1087.01" x2="-13.02" y2="1100.69" gradientTransform="matrix(1, 0, 0, -1, 25.08, 1127.61)" gradientUnits="userSpaceOnUse"><stop offset="0" stop-color="#717071"/><stop offset="0.23" stop-color="#a3a2a3"/><stop offset="0.5" stop-color="#d4d4d4"/><stop offset="0.7" stop-color="#f3f3f3"/><stop offset="0.81" stop-color="#fff"/></linearGradient></defs><path d="M1.82,73.31H5.65a7.57,7.57,0,0,1,2,.2,3.6,3.6,0,0,1,1.56.95,4.68,4.68,0,0,1,1,1.68,7.82,7.82,0,0,1,.34,2.45,6.81,6.81,0,0,1-.32,2.2,4.5,4.5,0,0,1-1.11,1.83,3.71,3.71,0,0,1-1.47.83,6.53,6.53,0,0,1-1.85.22H1.82Zm2.1,1.75v6.86H5.48a5.43,5.43,0,0,0,1.26-.1,1.77,1.77,0,0,0,.84-.43,2.08,2.08,0,0,0,.55-1,6.75,6.75,0,0,0,.21-1.89,6.3,6.3,0,0,0-.21-1.85,2.37,2.37,0,0,0-.59-1,2.08,2.08,0,0,0-1-.49,10,10,0,0,0-1.72-.1Z" style="fill:#fff"/><path d="M12.26,75.15V73.31h2v1.84Zm0,8.52v-7.5h2v7.5Z" style="fill:#fff"/><path d="M17.77,78.45,16,78.13a2.8,2.8,0,0,1,1-1.61A3.84,3.84,0,0,1,19.22,76a4.72,4.72,0,0,1,2,.31,2,2,0,0,1,.92.8,4.18,4.18,0,0,1,.26,1.77l0,2.32a7.4,7.4,0,0,0,.1,1.46,4.35,4.35,0,0,0,.35,1h-2a6,6,0,0,1-.19-.59c0-.12-.06-.19-.07-.23a3.63,3.63,0,0,1-1.09.74,3.23,3.23,0,0,1-1.24.25,2.53,2.53,0,0,1-1.82-.63,2.08,2.08,0,0,1-.67-1.59,2.18,2.18,0,0,1,.3-1.14,2.05,2.05,0,0,1,.86-.76,6.85,6.85,0,0,1,1.57-.46,11.12,11.12,0,0,0,1.93-.49v-.2a1,1,0,0,0-.28-.81,1.7,1.7,0,0,0-1.07-.25,1.4,1.4,0,0,0-.82.21A1.46,1.46,0,0,0,17.77,78.45Zm2.65,1.61a10.78,10.78,0,0,1-1.2.31,3.85,3.85,0,0,0-1.09.34.85.85,0,0,0-.38.7,1,1,0,0,0,.31.72,1,1,0,0,0,.79.31,1.67,1.67,0,0,0,1-.36,1.23,1.23,0,0,0,.48-.65,4.14,4.14,0,0,0,.07-1Z" style="fill:#fff"/><path d="M28.42,83.67V73.4h2.09v8.52h5.2v1.75Z" style="fill:#fff"/><path d="M40.62,76.17v1.58H39.27v3a6.82,6.82,0,0,0,0,1.07.39.39,0,0,0,.17.25.57.57,0,0,0,.34.1,2.52,2.52,0,0,0,.8-.19l.17,1.54a3.92,3.92,0,0,1-1.57.3,2.5,2.5,0,0,1-1-.18,1.38,1.38,0,0,1-.63-.47,1.75,1.75,0,0,1-.28-.77,10.22,10.22,0,0,1-.06-1.4V77.75h-.92V76.17h.92V74.68l2-1.16v2.65Z" style="fill:#fff"/><path d="M48.88,83.67H47V82.56a3,3,0,0,1-1.09,1,2.74,2.74,0,0,1-1.26.32,2.84,2.84,0,0,1-2.21-1,5.1,5.1,0,0,1,0-5.8,2.94,2.94,0,0,1,2.27-1,2.81,2.81,0,0,1,2.18,1V73.31h2Zm-5.3-3.92a3.35,3.35,0,0,0,.34,1.74,1.49,1.49,0,0,0,1.34.78,1.47,1.47,0,0,0,1.16-.58,2.71,2.71,0,0,0,.48-1.75,3,3,0,0,0-.46-1.86,1.53,1.53,0,0,0-2.38,0A2.5,2.5,0,0,0,43.58,79.75Z" style="fill:#fff"/><path d="M50.84,83.67v-2h2v2Z" style="fill:#fff"/><path d="M51.23,16.4C46.26,7.63,36,0,25.21,0H0V27A21.2,21.2,0,0,0,20.82,48.16,16.39,16.39,0,0,0,29.37,46a19.75,19.75,0,0,0,2.78-2,5.93,5.93,0,0,0,5.68,4.22V31.72c0-.15,0-.29,0-.43,0-.59,0-1.15-.08-1.7a4.9,4.9,0,0,1-5.9.43q.06.6.06,1.26h0v.95c-.58,9.75-10.1,9.25-10.1,9.25h0a16.34,16.34,0,0,1-5.65-1.26A9.2,9.2,0,0,1,11.07,32c0-5.25,2.41-8,4.81-9.52a11,11,0,0,1,9-1,10.3,10.3,0,0,1,4.89,3.08,5,5,0,0,1,4.66-3.71c-4.12-5-10.82-6.28-13.7-6.28C17.28,14.58,9.28,17,6.13,24.8V6.22s3.64-.06,19.08-.06c4.25,0,12.54,4.25,15.66,7.07C51,22.45,52,35.83,43.53,46.65c-4,5.17-13.23,9.71-16.81,9.71H17.24c-5.21,0-5.82,6.22-5.82,6.22H25.61C35.94,62.58,46,55.19,50.86,47S55.93,24.71,51.23,16.4Z" style="fill:#fff"/><path d="M32.16,44l.53-.46a15.61,15.61,0,0,0,4.62-7.7,20.27,20.27,0,0,0,.53-3.68v16l-1-.08A5.8,5.8,0,0,1,32.16,44Z" style="fill:url(#未命名漸層_5)"/><path d="M7.49,31.73c.56,1.34,1,2.43,3.49,5.06a15.41,15.41,0,0,0,7,4.08s-3.35-1-5-3.24a9.72,9.72,0,0,1-1.92-7.06,10.78,10.78,0,0,1,1-3.81L6.67,23.55l-.54,1.24A20.59,20.59,0,0,0,7.49,31.73Z" style="fill:url(#未命名漸層_4)"/><circle cx="34.54" cy="25.83" r="3.29" style="fill:#fff"/></svg>