<?xml version="1.0" encoding="utf-8"?>
<!-- Generator: Adobe Illustrator 25.0.0, SVG Export Plug-In . SVG Version: 6.00 Build 0)  -->
<svg version="1.1" id="圖層_1" xmlns="http://www.w3.org/2000/svg" xmlns:xlink="http://www.w3.org/1999/xlink" x="0px" y="0px"
	 viewBox="0 0 103 109" style="enable-background:new 0 0 103 109;" xml:space="preserve">
<g>
	<path style="fill:#B2CAE0;" d="M93.77,54.5H63.73c-5.1,0-9.23-4.13-9.23-9.23V9.23c0-5.1-4.13-9.23-9.23-9.23H9.23
		C4.13,0,0,4.13,0,9.23v90.54c0,5.1,4.13,9.23,9.23,9.23h84.54c5.1,0,9.23-4.13,9.23-9.23V63.73C103,58.63,98.87,54.5,93.77,54.5z
		 M95.91,93.56c0,4.45-3.6,8.05-8.05,8.05H14.88c-4.45,0-8.05-3.6-8.05-8.05V14.57c0-4.45,3.6-8.05,8.05-8.05h25.44
		c4.45,0,8.05,3.6,8.05,8.05v32.75c0,7.59,6.15,13.74,13.74,13.74h25.75c4.45,0,8.05,3.6,8.05,8.05V93.56z"/>
	<rect y="25.28" style="fill:#5147e7;" width="6.83" height="6.42"/>
	<rect y="31.71" style="fill:#D8E5EA;" width="6.83" height="6.42"/>
</g>
<path style="fill:#5147e7;" d="M93.77,54.5H63.73c-5.1,0-9.23-4.13-9.23-9.23V9.23c0-5.1-4.13-9.23-9.23-9.23H9.23
	C4.13,0,0,4.13,0,9.23v90.54c0,5.1,4.13,9.23,9.23,9.23h84.54c5.1,0,9.23-4.13,9.23-9.23V63.73C103,58.63,98.87,54.5,93.77,54.5z"/>
</svg>
